<?xml version="1.0" encoding="utf-8"?>
<!-- Generator: Adobe Illustrator 21.1.0, SVG Export Plug-In . SVG Version: 6.00 Build 0)  -->
<svg version="1.1" id="Capa_1" xmlns="http://www.w3.org/2000/svg" xmlns:xlink="http://www.w3.org/1999/xlink" x="0px" y="0px"
	 viewBox="0 0 554 600" style="enable-background:new 0 0 554 600;" xml:space="preserve">
<style type="text/css">
	.st0{opacity:0.5;}
	.st1{fill:#CDDED8;}
	.st2{opacity:0.5;fill:#D9DFE8;enable-background:new    ;}
	.st3{opacity:0.5;fill:#CDDED8;enable-background:new    ;}
	.st4{fill:url(#SVGID_1_);}
	.st5{fill:none;stroke:#FFFFFF;stroke-miterlimit:10;}
	.st6{opacity:5.000000e-02;enable-background:new    ;}
	.st7{fill:url(#SVGID_2_);}
	.st8{opacity:0.5;fill:none;stroke:#BDBDBD;stroke-width:2;stroke-miterlimit:10;enable-background:new    ;}
	.st9{opacity:0.5;fill:#D8EAED;enable-background:new    ;}
</style>
<g class="st0">
	<rect x="225.9" y="569.1" class="st1" width="1.2" height="7"/>
	<rect x="223.1" y="572" class="st1" width="7" height="1.2"/>
</g>
<g class="st0">
	<rect x="387.4" y="33.5" class="st1" width="1.2" height="7"/>
	<rect x="384.5" y="36.4" class="st1" width="7" height="1.2"/>
</g>
<g class="st0">
	<rect x="131.9" y="572.6" class="st1" width="1.2" height="7"/>
	<rect x="129" y="575.5" class="st1" width="7" height="1.2"/>
</g>
<path class="st2" d="M24.6,420.8c-0.7-0.3-1.1-1.1-0.8-1.8c0-0.1,0-0.1,0-0.2l0,0c0-0.4-0.3-0.8-0.8-0.8c-0.2,0-0.5,0.1-0.6,0.3l0,0
	l-0.1,0.1c-0.3,0.7-1.1,1.1-1.8,0.8c-0.1,0-0.1,0-0.2,0l0,0c-0.4,0-0.8,0.3-0.8,0.8c0,0.2,0.1,0.5,0.3,0.6l0,0l0.1,0.1
	c0.7,0.3,1.1,1.1,0.8,1.8c0,0.1,0,0.1,0,0.2l0,0c0,0.4,0.3,0.8,0.8,0.8c0.2,0,0.5-0.1,0.6-0.3l0,0l0.1-0.1c0.3-0.7,1.1-1.1,1.8-0.8
	c0.1,0,0.1,0,0.2,0l0,0c0.4,0,0.8-0.3,0.8-0.8c0-0.2-0.1-0.5-0.3-0.6l0,0C24.7,420.9,24.7,420.9,24.6,420.8z"/>
<path class="st2" d="M73.6,490.7c-0.7-0.3-1.1-1.1-0.8-1.8c0-0.1,0-0.1,0-0.2l0,0c0-0.4-0.3-0.8-0.8-0.8c-0.2,0-0.5,0.1-0.6,0.3l0,0
	l-0.1,0.1c-0.3,0.7-1.1,1.1-1.8,0.8c-0.1,0-0.1,0-0.2,0l0,0c-0.4,0-0.8,0.3-0.8,0.8c0,0.2,0.1,0.5,0.3,0.6l0,0l0.1,0.1
	c0.7,0.3,1.1,1.1,0.8,1.8c0,0.1,0,0.1,0,0.2l0,0c0,0.4,0.3,0.8,0.8,0.8c0.2,0,0.5-0.1,0.6-0.3l0,0l0.1-0.1c0.3-0.7,1.1-1.1,1.8-0.8
	c0.1,0,0.1,0,0.2,0l0,0c0.4,0,0.8-0.3,0.8-0.8c0-0.2-0.1-0.5-0.3-0.6l0,0C73.7,490.8,73.7,490.8,73.6,490.7z"/>
<circle class="st3" cx="309.3" cy="551.7" r="2.5"/>
<circle class="st3" cx="221.2" cy="32" r="2.5"/>
<g class="st0">
	
		<rect x="502.4" y="460.1" transform="matrix(1.260930e-02 -0.9999 0.9999 1.260930e-02 33.0915 960.6881)" class="st1" width="1.2" height="7"/>
	
		<rect x="499.5" y="463" transform="matrix(1.260930e-02 -0.9999 0.9999 1.260930e-02 33.0916 960.6807)" class="st1" width="7" height="1.2"/>
</g>
<path class="st2" d="M301.6,52.2c0.3-0.7,1.1-1.1,1.8-0.8c0.1,0,0.1,0,0.2,0l0,0c0.4,0,0.8-0.3,0.8-0.7c0-0.2-0.1-0.5-0.3-0.6l0,0
	L304,50c-0.7-0.3-1.1-1.1-0.8-1.8c0-0.1,0-0.1,0-0.2l0,0c0-0.4-0.3-0.8-0.7-0.8c-0.2,0-0.5,0.1-0.6,0.3l0,0l-0.1,0.1
	c-0.3,0.7-1.1,1.1-1.8,0.8c-0.1,0-0.1,0-0.2,0l0,0c-0.4,0-0.8,0.3-0.8,0.7c0,0.2,0.1,0.5,0.3,0.6l0,0l0.1,0.1
	c0.7,0.3,1.1,1.1,0.8,1.8c0,0.1,0,0.1,0,0.2l0,0c0,0.4,0.3,0.8,0.7,0.8c0.2,0,0.5-0.1,0.6-0.3l0,0C301.5,52.3,301.6,52.3,301.6,52.2
	z"/>
<ellipse transform="matrix(1.260930e-02 -0.9999 0.9999 1.260930e-02 -69.0512 1082.2939)" class="st3" cx="513.5" cy="576.1" rx="2.5" ry="2.5"/>
<g class="st0">
	
		<rect x="100.9" y="60.1" transform="matrix(1.260930e-02 -0.9999 0.9999 1.260930e-02 36.7046 164.2787)" class="st1" width="1.2" height="7"/>
	
		<rect x="98" y="63" transform="matrix(1.260930e-02 -0.9999 0.9999 1.260930e-02 36.7047 164.2861)" class="st1" width="7" height="1.2"/>
</g>
<g class="st0">
	
		<rect x="500.4" y="274.1" transform="matrix(1.260930e-02 -0.9999 0.9999 1.260930e-02 217.1274 775.0809)" class="st1" width="1.2" height="7"/>
	
		<rect x="497.5" y="277" transform="matrix(1.260930e-02 -0.9999 0.9999 1.260930e-02 217.1271 775.0884)" class="st1" width="7" height="1.2"/>
</g>
<path class="st2" d="M529.4,212.3c-0.3,0.7-1.1,1.1-1.8,0.8c-0.1,0-0.1,0-0.2,0l0,0c-0.4,0-0.8,0.3-0.8,0.7c0,0.2,0.1,0.5,0.3,0.6
	l0,0l0.1,0.1c0.7,0.3,1.1,1.1,0.8,1.8c0,0.1,0,0.1,0,0.2l0,0c0,0.4,0.3,0.8,0.7,0.8c0.2,0,0.5-0.1,0.6-0.3l0,0l0.1-0.1
	c0.3-0.7,1.1-1.1,1.8-0.8c0.1,0,0.1,0,0.2,0l0,0c0.4,0,0.8-0.3,0.8-0.7c0-0.2-0.1-0.5-0.3-0.6l0,0l-0.1-0.1
	c-0.7-0.3-1.1-1.1-0.8-1.8c0-0.1,0-0.1,0-0.2l0,0c0-0.4-0.3-0.8-0.7-0.8c-0.2,0-0.5,0.1-0.6,0.3l0,0
	C529.5,212.2,529.5,212.3,529.4,212.3z"/>
<ellipse transform="matrix(1.260930e-02 -0.9999 0.9999 1.260930e-02 424.653 569.0652)" class="st3" cx="500.5" cy="69.5" rx="2.5" ry="2.5"/>
<ellipse transform="matrix(1.260930e-02 -0.9999 0.9999 1.260930e-02 -2.668 66.3604)" class="st3" cx="32.3" cy="34.5" rx="2.5" ry="2.5"/>
<ellipse transform="matrix(1.260930e-02 -0.9999 0.9999 1.260930e-02 -175.4682 237.0778)" class="st3" cx="32.3" cy="207.4" rx="2.5" ry="2.5"/>
<g class="st0">
	
		<rect x="12.9" y="313.9" transform="matrix(1.260930e-02 -0.9999 0.9999 1.260930e-02 -304.0688 326.8759)" class="st1" width="1.2" height="7"/>
	
		<rect x="10" y="316.8" transform="matrix(1.260930e-02 -0.9999 0.9999 1.260930e-02 -304.0688 326.8835)" class="st1" width="7" height="1.2"/>
</g>
<g class="st0">
	
		<rect x="34.2" y="560.2" transform="matrix(1.260930e-02 -0.9999 0.9999 1.260930e-02 -529.306 591.3772)" class="st1" width="1.2" height="7"/>
	
		<rect x="31.3" y="563.1" transform="matrix(1.260930e-02 -0.9999 0.9999 1.260930e-02 -529.3062 591.385)" class="st1" width="7" height="1.2"/>
</g>
<path class="st2" d="M418.5,546.9c-0.3,0.7-1.1,1.1-1.8,0.8c-0.1,0-0.1,0-0.2,0l0,0c-0.4,0-0.8,0.3-0.8,0.7c0,0.2,0.1,0.5,0.3,0.6
	l0,0l0.1,0.1c0.7,0.3,1.1,1.1,0.8,1.8c0,0.1,0,0.1,0,0.2l0,0c0,0.4,0.3,0.8,0.7,0.8c0.2,0,0.5-0.1,0.6-0.3l0,0l0.1-0.1
	c0.3-0.7,1.1-1.1,1.8-0.8c0.1,0,0.1,0,0.2,0l0,0c0.4,0,0.8-0.3,0.8-0.7c0-0.2-0.1-0.5-0.3-0.6l0,0l-0.1-0.1
	c-0.7-0.3-1.1-1.1-0.8-1.8c0-0.1,0-0.1,0-0.2l0,0c0-0.4-0.3-0.8-0.7-0.8c-0.2,0-0.5,0.1-0.6,0.3l0,0
	C418.6,546.8,418.6,546.9,418.5,546.9z"/>
<g>
	
		<linearGradient id="SVGID_1_" gradientUnits="userSpaceOnUse" x1="253.8" y1="951.2" x2="253.8" y2="613.8" gradientTransform="matrix(1 0 0 1 0 -480)">
		<stop  offset="0" style="stop-color:#808080;stop-opacity:0.25"/>
		<stop  offset="0.54" style="stop-color:#808080;stop-opacity:0.12"/>
		<stop  offset="1" style="stop-color:#808080;stop-opacity:0.1"/>
	</linearGradient>
	<circle class="st4" cx="253.8" cy="302.5" r="168.7"/>
	<circle class="st5" cx="253.8" cy="302.5" r="164.6"/>
	<circle class="st6" cx="200.6" cy="207.4" r="20.4"/>
	<circle class="st6" cx="263.1" cy="426.3" r="20.4"/>
	<circle class="st6" cx="283.5" cy="279.1" r="41.8"/>
	
		<linearGradient id="SVGID_2_" gradientUnits="userSpaceOnUse" x1="443.5975" y1="908.37" x2="443.5975" y2="826.87" gradientTransform="matrix(1 0 0 1 -185 -556.87)">
		<stop  offset="0" style="stop-color:#808080;stop-opacity:0.25"/>
		<stop  offset="0.54" style="stop-color:#808080;stop-opacity:0.12"/>
		<stop  offset="1" style="stop-color:#808080;stop-opacity:0.1"/>
	</linearGradient>
	<path class="st7" d="M319.9,351.5c-20.7,0-42.7-1-65.3-3c-50.1-4.4-96.8-13.2-131.4-24.8c-34.9-11.7-53.6-24.9-52.5-37.2
		c0.5-6.2,6-11.8,16.3-16.5l0.5,1.2c-9.8,4.5-15,9.7-15.5,15.5s3.8,11.9,12.9,18.2c8.9,6.1,21.9,12.1,38.7,17.7
		c34.6,11.6,81.2,20.4,131.1,24.8c50,4.4,97.4,3.9,133.4-1.4c17.5-2.6,31.4-6.2,41.2-10.6c10-4.6,15.4-9.8,15.9-15.6
		c0.6-6.6-5.4-13.8-17.3-20.9l0.7-1.1c12.5,7.5,18.5,14.9,17.9,22.2c-1.1,12.3-21.8,22-58.2,27.4C368.5,350,345.2,351.5,319.9,351.5
		z"/>
	<path class="st8" d="M428.4,296.8c11.8,7.1,18.2,14.4,17.6,21.5c-2.2,24.7-87.8,37.4-191.3,28.3C151.2,337.4,69.1,310,71.3,285.2
		c0.5-6.1,6.2-11.5,15.9-16"/>
	<g class="st0">
		<rect x="444.4" y="111.9" class="st1" width="1.7" height="9.5"/>
		<rect x="440.5" y="115.8" class="st1" width="9.5" height="1.7"/>
	</g>
	<g class="st0">
		<rect x="480.7" y="371.3" class="st1" width="1.7" height="9.5"/>
		<rect x="476.8" y="375.2" class="st1" width="9.5" height="1.7"/>
	</g>
	<g class="st0">
		<rect x="109" y="134.8" class="st1" width="1.7" height="9.5"/>
		<rect x="105.1" y="138.7" class="st1" width="9.5" height="1.7"/>
	</g>
	<path class="st2" d="M158.5,487.7c-1-0.4-1.5-1.5-1.1-2.5c0-0.1,0-0.2,0-0.2l0,0c0-0.6-0.4-1.1-1-1.1c-0.3,0-0.6,0.1-0.8,0.4l0,0
		c0,0.1-0.1,0.1-0.1,0.2c-0.4,1-1.5,1.5-2.5,1.1c-0.1,0-0.2,0-0.2,0l0,0c-0.6,0-1.1,0.4-1.1,1c0,0.3,0.1,0.6,0.4,0.8l0,0
		c0.1,0,0.1,0.1,0.2,0.1c1,0.4,1.5,1.5,1.1,2.5c0,0.1,0,0.2,0,0.2l0,0c0,0.6,0.4,1.1,1,1.1c0.3,0,0.6-0.1,0.8-0.4l0,0
		c0-0.1,0.1-0.1,0.1-0.2c0.4-1,1.5-1.5,2.5-1.1c0.1,0,0.2,0,0.2,0l0,0c0.6,0,1.1-0.4,1.1-1c0-0.3-0.1-0.6-0.4-0.8l0,0
		C158.7,487.8,158.6,487.8,158.5,487.7z"/>
	<path class="st2" d="M260.8,494.5c-1-0.4-1.5-1.5-1.1-2.5c0-0.1,0-0.2,0-0.2l0,0c0-0.6-0.4-1.1-1-1.1c-0.3,0-0.6,0.1-0.8,0.4l0,0
		c0,0.1-0.1,0.1-0.1,0.2c-0.4,1-1.5,1.5-2.5,1.1c-0.1,0-0.2,0-0.2,0l0,0c-0.6,0-1.1,0.4-1.1,1c0,0.3,0.1,0.6,0.4,0.8l0,0
		c0.1,0,0.1,0.1,0.2,0.1c1,0.4,1.5,1.5,1.1,2.5c0,0.1,0,0.2,0,0.2l0,0c0,0.6,0.4,1.1,1,1.1c0.3,0,0.6-0.1,0.8-0.4l0,0
		c0-0.1,0.1-0.1,0.1-0.2c0.4-1,1.5-1.5,2.5-1.1c0.1,0,0.2,0,0.2,0l0,0c0.6,0,1.1-0.4,1.1-1c0-0.3-0.1-0.6-0.4-0.8l0,0
		C261,494.5,260.9,494.5,260.8,494.5z"/>
	<path class="st2" d="M463.2,224.4c-1-0.4-1.5-1.5-1.1-2.5c0-0.1,0-0.2,0-0.2l0,0c0-0.6-0.4-1.1-1-1.1c-0.3,0-0.6,0.1-0.8,0.4l0,0
		c0,0.1-0.1,0.1-0.1,0.2c-0.4,1-1.5,1.5-2.5,1.1c-0.1,0-0.2,0-0.2,0l0,0c-0.6,0-1.1,0.4-1.1,1c0,0.3,0.1,0.6,0.4,0.8l0,0
		c0.1,0,0.1,0.1,0.2,0.1c1,0.4,1.5,1.5,1.1,2.5c0,0.1,0,0.2,0,0.2l0,0c0,0.6,0.4,1.1,1,1.1c0.3,0,0.6-0.1,0.8-0.4l0,0
		c0-0.1,0.1-0.1,0.1-0.2c0.4-1,1.5-1.5,2.5-1.1c0.1,0,0.2,0,0.2,0l0,0c0.6,0,1.1-0.4,1.1-1c0-0.3-0.1-0.6-0.4-0.8l0,0
		C463.4,224.5,463.3,224.5,463.2,224.4z"/>
	<path class="st2" d="M64.7,372.4c-1-0.4-1.5-1.5-1.1-2.5c0-0.1,0-0.2,0-0.2l0,0c0-0.6-0.4-1.1-1-1.1c-0.3,0-0.6,0.1-0.8,0.4l0,0
		c0,0.1-0.1,0.1-0.1,0.2c-0.4,1-1.5,1.5-2.5,1.1c-0.1,0-0.2,0-0.2,0l0,0c-0.6,0-1.1,0.4-1.1,1c0,0.3,0.1,0.6,0.4,0.8l0,0
		c0.1,0,0.1,0.1,0.2,0.1c1,0.4,1.5,1.5,1.1,2.5c0,0.1,0,0.2,0,0.2l0,0c0,0.6,0.4,1.1,1,1.1c0.3,0,0.6-0.1,0.8-0.4l0,0
		c0-0.1,0.1-0.1,0.1-0.2c0.4-1,1.5-1.5,2.5-1.1c0.1,0,0.2,0,0.2,0l0,0c0.6,0,1.1-0.4,1.1-1c0-0.3-0.1-0.6-0.4-0.8l0,0
		C64.9,372.4,64.8,372.4,64.7,372.4z"/>
	<circle class="st2" cx="330.9" cy="121.9" r="3.4"/>
	<circle class="st3" cx="207.4" cy="95" r="3.4"/>
	<circle class="st9" cx="394.6" cy="470.8" r="3.4"/>
</g>
</svg>
