<?xml version="1.0" encoding="utf-8"?>
<!-- Generator: Adobe Illustrator 21.1.0, SVG Export Plug-In . SVG Version: 6.00 Build 0)  -->
<svg version="1.0" id="Capa_1" xmlns="http://www.w3.org/2000/svg" xmlns:xlink="http://www.w3.org/1999/xlink" x="0px" y="0px"
	 viewBox="0 0 1024 600" enable-background="new 0 0 1024 600" xml:space="preserve">
<g>
	<g>
		<path fill="#FFFFFF" d="M433.7,287.5v7.1h5.5v5.6h-5.5v8.9c0,3,0.7,4.3,3,4.3c1,0,1.7-0.1,2.3-0.2l0,5.8c-1,0.4-2.8,0.7-5,0.7
			c-2.5,0-4.6-0.9-5.8-2.1c-1.4-1.5-2.1-3.8-2.1-7.3v-10.1h-3.2v-5.6h3.3v-5.3L433.7,287.5z"/>
		<path fill="#FFFFFF" d="M451.6,287.7c0,2.1-1.6,3.8-4.1,3.8c-2.4,0-4.1-1.7-4-3.8c0-2.2,1.5-3.9,4.1-3.9S451.5,285.5,451.6,287.7z
			 M443.6,319.2v-24.6h7.6v24.6H443.6z"/>
		<path fill="#FFFFFF" d="M463.3,309.3c0.3,3.2,3.4,4.7,7,4.7c2.6,0,4.7-0.3,6.8-1l1,5.2c-2.5,1-5.6,1.5-8.9,1.5
			c-8.4,0-13.2-4.8-13.2-12.6c0-6.3,3.9-13.2,12.4-13.2c8,0,11,6.2,11,12.3c0,1.3-0.2,2.5-0.3,3L463.3,309.3L463.3,309.3z
			 M472.4,304c0-1.9-0.8-5-4.3-5c-3.2,0-4.6,2.9-4.8,5H472.4z"/>
		<path fill="#FFFFFF" d="M484,302.4c0-3.1-0.1-5.7-0.2-7.9h6.6l0.3,3.4h0.2c1-1.5,3.5-3.9,7.6-3.9c5.1,0,8.8,3.3,8.8,10.6v14.6
			h-7.6v-13.7c0-3.2-1.1-5.3-3.9-5.3c-2.1,0-3.4,1.5-3.9,2.9c-0.2,0.5-0.3,1.2-0.3,1.9v14.2H484V302.4L484,302.4z"/>
		<path fill="#FFFFFF" d="M537.5,283.4v28.4c0,2.8,0.1,5.7,0.2,7.3h-6.8l-0.3-3.6h-0.1c-1.5,2.8-4.6,4.2-7.7,4.2
			c-5.8,0-10.5-5-10.5-12.7c0-8.3,5.1-13.1,11-13.1c3,0,5.4,1,6.5,2.8h0.1v-13.4L537.5,283.4L537.5,283.4z M529.8,305
			c0-0.4,0-1-0.1-1.4c-0.5-2-2.1-3.8-4.5-3.8c-3.5,0-5.3,3.1-5.3,7c0,4.2,2.1,6.8,5.3,6.8c2.2,0,4-1.5,4.4-3.7
			c0.2-0.5,0.2-1.1,0.2-1.8L529.8,305L529.8,305z"/>
		<path fill="#FFFFFF" d="M557.6,319.2l-0.5-2.5H557c-1.6,2-4.1,3-7.1,3c-5,0-8-3.6-8-7.6c0-6.4,5.8-9.5,14.4-9.4v-0.3
			c0-1.3-0.7-3.2-4.5-3.2c-2.5,0-5.2,0.9-6.8,1.9l-1.4-4.9c1.7-1,5.1-2.2,9.6-2.2c8.2,0,10.8,4.8,10.8,10.6v8.6c0,2.4,0.1,4.6,0.3,6
			L557.6,319.2L557.6,319.2z M556.7,307.5c-4.1,0-7.1,0.9-7.1,3.9c0,2,1.3,2.9,3,2.9c1.9,0,3.5-1.3,4-2.8c0.1-0.4,0.2-0.8,0.2-1.3
			V307.5z"/>
		<path fill="#FFFFFF" d="M570.8,301.4c0-2.5,0-4.6-0.2-6.6h3.9l0.3,4.1h0.1c1.2-2.3,4.1-4.6,8.1-4.6c3.4,0,8.6,2,8.6,10.4v14.6
			h-4.4v-14.1c0-3.9-1.5-7.2-5.6-7.2c-2.9,0-5.2,2-5.9,4.6c-0.2,0.5-0.3,1.3-0.3,2v14.7h-4.4V301.4z"/>
		<path fill="#FFFFFF" d="M619.2,312.5c0,2.5,0,4.7,0.2,6.6h-3.9l-0.3-4h-0.1c-1.2,2-3.7,4.6-8.1,4.6c-3.8,0-8.4-2.1-8.4-10.7v-14.3
			h4.4v13.5c0,4.6,1.4,7.8,5.4,7.8c3,0,5.1-2,5.8-4.1c0.3-0.7,0.4-1.5,0.4-2.3v-14.9h4.4V312.5L619.2,312.5z"/>
		<path fill="#FFFFFF" d="M626.4,319.2c0.1-1.7,0.2-4.1,0.2-6.3v-29.5h4.4v15.3h0.1c1.5-2.7,4.4-4.5,8.3-4.5
			c6.1,0,10.3,5.1,10.3,12.4c0,8.7-5.5,13.1-10.9,13.1c-3.5,0-6.3-1.4-8.1-4.6h-0.2l-0.2,4.1L626.4,319.2L626.4,319.2z M630.9,309.4
			c0,0.5,0.1,1.1,0.2,1.6c0.9,3.1,3.4,5.2,6.6,5.2c4.6,0,7.4-3.8,7.4-9.4c0-4.9-2.5-9.1-7.3-9.1c-3,0-5.8,2-6.8,5.4
			c-0.1,0.5-0.3,1.1-0.3,1.8L630.9,309.4L630.9,309.4z"/>
		<path fill="#FFFFFF" d="M657.7,307.8c0.1,6,3.9,8.5,8.4,8.5c3.2,0,5.1-0.5,6.8-1.3l0.8,3.2c-1.5,0.7-4.2,1.5-8.1,1.5
			c-7.5,0-12-4.9-12-12.3c0-7.4,4.3-13.2,11.4-13.2c8,0,10.1,7,10.1,11.5c0,0.9-0.1,1.6-0.2,2L657.7,307.8L657.7,307.8z
			 M670.7,304.6c0-2.8-1.2-7.2-6.1-7.2c-4.5,0-6.4,4.1-6.8,7.2C657.8,304.6,670.7,304.6,670.7,304.6z"/>
	</g>
	<g>
		<path fill="#FFFFFF" d="M396.9,301.7h-26.7c-2,0-3.5-1.6-3.5-3.5V282c0-2,1.6-3.5,3.5-3.5h26.7c2,0,3.5,1.6,3.5,3.5v16.2
			C400.5,300.1,398.9,301.7,396.9,301.7z"/>
		<g>
			<g>
				<path fill="#2E6D75" d="M393.4,270.9l8-3.3l-50.3,4.4l7.3,48.6l50.5-4v-45.1L393.4,270.9z M394.1,288c-0.5,0.6-1.3,1.1-2.1,1.1
					l-0.4,0l-15.3,1.3v0c-2.3,0-4.2-1.7-4.4-4c-0.2-2.4,1.6-4.5,4-4.7c0.7-0.1,1.4,0.1,2,0.3c0.4-2.6,2.5-4.7,5.3-4.9
					c2.9-0.2,5.4,1.7,6.1,4.4c0.5-0.3,1-0.5,1.7-0.5c2.3-0.2,4.3,1.5,4.4,3.8C395.4,286.1,394.9,287.2,394.1,288z"/>
				<polygon fill="#3D8E9A" points="351.1,272 351.1,316.2 349,329.1 360.2,334.4 358.4,320.6 358.4,275.7 366.3,273.1 				"/>
				<polygon fill="#2E6D75" points="393.4,270.9 393.4,272.8 408.9,271.6 				"/>
				<polygon fill="#3D8E9A" points="401.4,267.6 401.4,271.2 393.4,270.9 				"/>
				<polygon fill="#2E6D75" points="366.3,275 366.3,273.1 358.4,275.7 				"/>
				<g>
					<path fill="#52BFCF" d="M408.9,316.7v-45.1l-50.5,4.1v45l1.9,13.8l50.5-4.2L408.9,316.7z M395.3,290.8
						c-0.5,0.6-1.3,1.1-2.2,1.2l-0.4,0l0,0l0,0l-15.6,1.3v0c-2.3,0-4.3-1.7-4.5-4.1c-0.2-2.4,1.6-4.6,4.1-4.8c0.7,0,1.4,0.1,2,0.3
						c0.4-2.7,2.6-5.4,5.4-5.7c3.5-0.3,5.5,2.3,6.2,5.1c0.5-0.3,1.1-0.5,1.7-0.5c2.3-0.2,4.3,1.5,4.5,3.8
						C396.7,288.8,396.2,289.9,395.3,290.8z"/>
				</g>
			</g>
		</g>
	</g>
</g>
</svg>
