<?xml version="1.0" encoding="utf-8"?>
<!-- Generator: Adobe Illustrator 21.1.0, SVG Export Plug-In . SVG Version: 6.00 Build 0)  -->
<svg version="1.0" id="Capa_1" xmlns="http://www.w3.org/2000/svg" xmlns:xlink="http://www.w3.org/1999/xlink" x="0px" y="0px"
	 viewBox="0 0 554 600" enable-background="new 0 0 554 600" xml:space="preserve">
<ellipse fill="none" stroke="#FCB72D" stroke-miterlimit="10" cx="308.9" cy="209.8" rx="94" ry="72.8"/>
<path opacity="0.13" fill="#FFFFFF" enable-background="new    " d="M230.1,217.9c0-40.2,42.1-72.8,94-72.8
	c16.1-0.1,32.1,3.2,46.8,9.7c-16.5-11.2-38.1-17.9-61.8-17.9c-51.9,0-94,32.6-94,72.8c0,27,19,50.6,47.1,63.1
	C242.6,259.4,230.1,239.8,230.1,217.9z"/>
<polygon opacity="0.25" fill="#FFE4AE" enable-background="new    " points="308.9,239.1 413,419.5 517.2,599.9 308.9,599.9 
	100.6,599.9 204.7,419.5 "/>
<path fill="none" stroke="#FFFFFF" stroke-miterlimit="10" d="M276.9,529.9c1.9-2.6,5.2-4.5,8.4-3.7s6.1,3.7,8.9,2.2
	c3.1-1.6,1.9-6.8,4.6-9.1c2.1-1.8,5.2-0.9,7.7,0c2.6,0.9,5.8,1.5,7.6-0.6c1.2-1.4,1.1-3.6,2.2-5c1.3-1.7,3.8-1.9,5.9-1.6
	c1.1,0.2,8.1,8.2,13.5,5.6c-8.8-7.5-3.9-21.7-3.3-23.8l7.8-23.2c6.9-20.7-4.2-43-24.8-50l0,0c-20.7-6.9-43,4.2-50,24.8L253.1,482
	c-6.6,19.9,3.4,41.5,22.9,49.3C276.2,530.8,276.5,530.3,276.9,529.9z"/>
<ellipse transform="matrix(0.319 -0.9478 0.9478 0.319 -220.3898 577.1555)" fill="none" stroke="#FFFFFF" stroke-miterlimit="10" cx="291.4" cy="441.9" rx="4.3" ry="4.3"/>
<ellipse transform="matrix(0.319 -0.9478 0.9478 0.319 -211.5923 605.7446)" fill="none" stroke="#FFFFFF" stroke-miterlimit="10" cx="315.7" cy="450.1" rx="4.3" ry="4.3"/>
<ellipse transform="matrix(0.319 -0.9478 0.9478 0.319 -235.049 597.3146)" fill="none" stroke="#FFFFFF" stroke-miterlimit="10" cx="298.1" cy="462.2" rx="6.4" ry="4.3"/>
<ellipse transform="matrix(0.319 -0.9478 0.9478 0.319 -155.5253 669.3222)" fill="none" stroke="#FFFFFF" stroke-miterlimit="10" cx="388" cy="442.9" rx="6.4" ry="6.4"/>
<ellipse transform="matrix(0.319 -0.9478 0.9478 0.319 -132.1572 681.687)" fill="none" stroke="#FFFFFF" stroke-miterlimit="10" cx="408.3" cy="432.8" rx="3.2" ry="3.2"/>
<path opacity="0.1" enable-background="new    " d="M399.1,188.2c1.2,4.7,1.8,9.5,1.8,14.4c0,40.2-42.1,72.8-94,72.8
	c-42.5,0-78.3-21.8-90-51.7c8.6,33.3,46.6,58.4,92.1,58.4c51.9,0,94-32.6,94-72.8C403.1,202.1,401.7,194.9,399.1,188.2z"/>
<path fill="none" stroke="#FFFFFF" stroke-width="0.75" stroke-miterlimit="10" d="M496.8,241.5L496.8,241.5
	c0,27.1-84.1,49.1-187.9,49.1c-103.8,0-187.9-22-187.9-49.1v0c0-27.1,84.1-49.1,187.9-49.1C412.6,192.4,496.8,214.4,496.8,241.5z"/>
<g opacity="0.74">
	<path opacity="0.5" fill="#F6FAFF" enable-background="new    " d="M117.6,152.2c-0.9-0.4-1.4-1.5-1.1-2.4c0-0.1,0-0.1,0-0.2l0,0
		c0-0.6-0.4-1-0.9-1.1c-0.3,0-0.7,0.1-0.9,0.4l0,0c0,0.1-0.1,0.1-0.1,0.2c-0.4,0.9-1.5,1.4-2.4,1.1c-0.1,0-0.1,0-0.2,0l0,0
		c-0.6,0-1,0.4-1.1,0.9c0,0.3,0.1,0.7,0.4,0.9l0,0c0.1,0,0.1,0.1,0.2,0.1c0.9,0.4,1.4,1.5,1.1,2.4c0,0.1,0,0.1,0,0.2l0,0
		c0,0.6,0.4,1,0.9,1.1c0.3,0,0.7-0.1,0.9-0.4l0,0c0-0.1,0.1-0.1,0.1-0.2c0.4-0.9,1.5-1.4,2.4-1.1c0.1,0,0.1,0,0.2,0l0,0
		c0.6,0,1-0.4,1.1-0.9c0-0.3-0.1-0.7-0.4-0.9l0,0C117.7,152.3,117.7,152.3,117.6,152.2z"/>
	<path opacity="0.5" fill="#F6FAFF" enable-background="new    " d="M470.9,389.1c-0.9-0.4-1.4-1.5-1.1-2.4c0-0.1,0-0.1,0-0.2l0,0
		c0-0.6-0.4-1-0.9-1.1c-0.3,0-0.7,0.1-0.9,0.4l0,0c0,0.1-0.1,0.1-0.1,0.2c-0.4,0.9-1.5,1.4-2.4,1.1c-0.1,0-0.1,0-0.2,0l0,0
		c-0.6,0-1,0.4-1.1,0.9c0,0.3,0.1,0.7,0.4,0.9l0,0c0.1,0,0.1,0.1,0.2,0.1c0.9,0.4,1.4,1.5,1.1,2.4c0,0.1,0,0.1,0,0.2l0,0
		c0,0.6,0.4,1,0.9,1.1c0.3,0,0.7-0.1,0.9-0.4l0,0c0-0.1,0.1-0.1,0.1-0.2c0.4-0.9,1.5-1.4,2.4-1.1c0.1,0,0.1,0,0.2,0l0,0
		c0.6,0,1-0.4,1.1-0.9c0-0.3-0.1-0.7-0.4-0.9l0,0C471,389.2,470.9,389.2,470.9,389.1z"/>
	<path opacity="0.5" fill="#F6FAFF" enable-background="new    " d="M83.7,493c-0.9-0.4-1.4-1.5-1.1-2.4c0-0.1,0-0.1,0-0.2l0,0
		c0-0.6-0.4-1-0.9-1.1c-0.3,0-0.7,0.1-0.9,0.4l0,0c0,0.1-0.1,0.1-0.1,0.2c-0.4,0.9-1.5,1.4-2.4,1.1c-0.1,0-0.1,0-0.2,0l0,0
		c-0.6,0-1,0.4-1.1,0.9c0,0.3,0.1,0.7,0.4,0.9l0,0c0.1,0,0.1,0.1,0.2,0.1c0.9,0.4,1.4,1.5,1.1,2.4c0,0.1,0,0.1,0,0.2l0,0
		c0,0.6,0.4,1,0.9,1.1c0.3,0,0.7-0.1,0.9-0.4l0,0c0-0.1,0.1-0.1,0.1-0.2c0.4-0.9,1.5-1.4,2.4-1.1c0.1,0,0.1,0,0.2,0l0,0
		c0.6,0,1-0.4,1.1-0.9c0-0.3-0.1-0.7-0.4-0.9l0,0C83.8,493.1,83.8,493.1,83.7,493z"/>
	<path opacity="0.5" fill="#F6FAFF" enable-background="new    " d="M34.7,241.6c-0.9-0.4-1.4-1.5-1.1-2.4c0-0.1,0-0.1,0-0.2l0,0
		c0-0.6-0.4-1-0.9-1.1c-0.3,0-0.7,0.1-0.9,0.4l0,0c0,0.1-0.1,0.1-0.1,0.2c-0.4,0.9-1.5,1.4-2.4,1.1c-0.1,0-0.1,0-0.2,0l0,0
		c-0.6,0-1,0.4-1.1,0.9c0,0.3,0.1,0.7,0.4,0.9l0,0c0.1,0,0.1,0.1,0.2,0.1c0.9,0.4,1.4,1.5,1.1,2.4c0,0.1,0,0.1,0,0.2l0,0
		c0,0.6,0.4,1,0.9,1.1c0.3,0,0.7-0.1,0.9-0.4l0,0c0-0.1,0.1-0.1,0.1-0.2c0.4-0.9,1.5-1.4,2.4-1.1c0.1,0,0.1,0,0.2,0l0,0
		c0.6,0,1-0.4,1.1-0.9c0-0.3-0.1-0.7-0.4-0.9l0,0C34.8,241.7,34.8,241.6,34.7,241.6z"/>
	<path opacity="0.5" fill="#F6FAFF" enable-background="new    " d="M445,112.5c-0.9-0.4-1.4-1.5-1.1-2.4c0-0.1,0-0.1,0-0.2l0,0
		c0-0.6-0.4-1-0.9-1.1c-0.3,0-0.7,0.1-0.9,0.4l0,0c0,0.1-0.1,0.1-0.1,0.2c-0.4,0.9-1.5,1.4-2.4,1.1c-0.1,0-0.1,0-0.2,0l0,0
		c-0.5-0.1-1.1,0.2-1.2,0.8c-0.1,0.4,0.1,0.9,0.5,1.1l0,0c0.1,0,0.1,0.1,0.2,0.1c0.9,0.4,1.4,1.5,1.1,2.4c0,0.1,0,0.1,0,0.2l0,0
		c-0.1,0.6,0.3,1,0.9,1.1c0.4,0,0.7-0.1,1-0.5l0,0c0-0.1,0.1-0.1,0.1-0.2c0.4-0.9,1.5-1.4,2.4-1.1c0.1,0,0.1,0,0.2,0l0,0
		c0.6,0,1-0.4,1.1-0.9c0-0.3-0.1-0.7-0.4-0.9l0,0C445.2,112.6,445.1,112.5,445,112.5z"/>
	<g opacity="0.5">
		<rect x="43.8" y="339.7" fill="#F2FFFB" width="1.6" height="9.3"/>
		<rect x="40" y="343.5" fill="#F2FFFB" width="9.3" height="1.6"/>
	</g>
	<g opacity="0.5">
		<rect x="163.5" y="86.3" fill="#F2FFFB" width="1.6" height="9.3"/>
		<rect x="159.7" y="90.1" fill="#F2FFFB" width="9.3" height="1.6"/>
	</g>
	<g opacity="0.5">
		<rect x="502.4" y="463.8" fill="#F2FFFB" width="1.6" height="9.3"/>
		<rect x="498.5" y="467.6" fill="#F2FFFB" width="9.3" height="1.6"/>
	</g>
	<circle opacity="0.5" fill="#FCFFFF" enable-background="new    " cx="520.8" cy="37.3" r="3.3"/>
	<circle opacity="0.5" fill="#FCFFFF" enable-background="new    " cx="20" cy="126.3" r="3.3"/>
	<circle opacity="0.5" fill="#FCFFFF" enable-background="new    " cx="167.6" cy="337.5" r="3.3"/>
	<path opacity="0.5" fill="#F6FAFF" enable-background="new    " d="M290.2,95.6c-0.9-0.4-1.4-1.5-1.1-2.4c0-0.1,0-0.1,0-0.2l0,0
		c0-0.6-0.4-1-0.9-1.1c-0.3,0-0.7,0.1-0.9,0.4l0,0c0,0.1-0.1,0.1-0.1,0.2c-0.4,0.9-1.5,1.4-2.4,1.1c-0.1,0-0.1,0-0.2,0l0,0
		c-0.6,0-1,0.4-1.1,0.9c0,0.3,0.1,0.7,0.4,0.9l0,0c0.1,0,0.1,0.1,0.2,0.1c0.9,0.4,1.4,1.5,1.1,2.4c0,0.1,0,0.1,0,0.2l0,0
		c0,0.6,0.4,1,0.9,1.1c0.3,0,0.7-0.1,0.9-0.4l0,0c0-0.1,0.1-0.1,0.1-0.2c0.4-0.9,1.5-1.4,2.4-1.1c0.1,0,0.1,0,0.2,0l0,0
		c0.6,0,1-0.4,1.1-0.9c0-0.3-0.1-0.7-0.4-0.9l0,0C290.3,95.7,290.2,95.7,290.2,95.6z"/>
	<path opacity="0.5" fill="#F6FAFF" enable-background="new    " d="M520.2,177.1c-0.9-0.4-1.4-1.5-1.1-2.4c0-0.1,0-0.1,0-0.2l0,0
		c0-0.6-0.4-1-0.9-1.1c-0.3,0-0.7,0.1-0.9,0.4l0,0c0,0.1-0.1,0.1-0.1,0.2c-0.4,0.9-1.5,1.4-2.4,1.1c-0.1,0-0.1,0-0.2,0l0,0
		c-0.6,0-1,0.4-1.1,0.9c0,0.3,0.1,0.7,0.4,0.9l0,0c0.1,0,0.1,0.1,0.2,0.1c0.9,0.4,1.4,1.5,1.1,2.4c0,0.1,0,0.1,0,0.2l0,0
		c0,0.6,0.4,1,0.9,1.1c0.3,0,0.7-0.1,0.9-0.4l0,0c0-0.1,0.1-0.1,0.1-0.2c0.4-0.9,1.5-1.4,2.4-1.1c0.1,0,0.1,0,0.2,0l0,0
		c0.6,0,1-0.4,1.1-0.9c0-0.3-0.1-0.7-0.4-0.9l0,0C520.4,177.2,520.3,177.1,520.2,177.1z"/>
	<path opacity="0.5" fill="#F6FAFF" enable-background="new    " d="M75.5,59.7c-0.9-0.4-1.4-1.5-1.1-2.4c0-0.1,0-0.1,0-0.2l0,0
		c0-0.6-0.4-1-0.9-1.1c-0.3,0-0.7,0.1-0.9,0.4l0,0c0,0.1-0.1,0.1-0.1,0.2c-0.4,0.9-1.5,1.4-2.4,1.1c-0.1,0-0.1,0-0.2,0l0,0
		c-0.6,0-1,0.4-1.1,0.9c0,0.3,0.1,0.7,0.4,0.9l0,0c0.1,0,0.1,0.1,0.2,0.1c0.9,0.4,1.4,1.5,1.1,2.4c0,0.1,0,0.1,0,0.2l0,0
		c0,0.6,0.4,1,0.9,1.1c0.3,0,0.7-0.1,0.9-0.4l0,0c0-0.1,0.1-0.1,0.1-0.2c0.4-0.9,1.5-1.4,2.4-1.1c0.1,0,0.1,0,0.2,0l0,0
		c0.6,0,1-0.4,1.1-0.9c0-0.3-0.1-0.7-0.4-0.9l0,0C75.6,59.7,75.6,59.7,75.5,59.7z"/>
	<circle opacity="0.5" fill="#FCFFFF" enable-background="new    " cx="361.7" cy="37.3" r="3.3"/>
	<circle opacity="0.5" fill="#FCFFFF" enable-background="new    " cx="222.5" cy="40.6" r="3.3"/>
</g>
<g>
	<ellipse fill="none" stroke="#FFFFFF" stroke-width="0.5" stroke-miterlimit="10" cx="308.9" cy="209.8" rx="96.1" ry="74.4"/>
</g>
<rect x="244.8" y="290.7" fill="none" stroke="#FFFFFF" stroke-width="0.75" stroke-miterlimit="10" width="128.1" height="12.8"/>
</svg>
