<?xml version="1.0" encoding="utf-8"?>
<!-- Generator: Adobe Illustrator 21.1.0, SVG Export Plug-In . SVG Version: 6.00 Build 0)  -->
<svg version="1.0" id="Capa_1" xmlns="http://www.w3.org/2000/svg" xmlns:xlink="http://www.w3.org/1999/xlink" x="0px" y="0px"
	 viewBox="0 0 554 600" enable-background="new 0 0 554 600" xml:space="preserve">
<g opacity="0.5">
	<rect x="225.9" y="569.1" fill="#CDDED8" width="1.2" height="7"/>
	<rect x="223.1" y="572" fill="#CDDED8" width="7" height="1.2"/>
</g>
<g opacity="0.5">
	<rect x="387.4" y="33.5" fill="#CDDED8" width="1.2" height="7"/>
	<rect x="384.5" y="36.4" fill="#CDDED8" width="7" height="1.2"/>
</g>
<g opacity="0.5">
	<rect x="131.9" y="572.6" fill="#CDDED8" width="1.2" height="7"/>
	<rect x="129" y="575.5" fill="#CDDED8" width="7" height="1.2"/>
</g>
<path opacity="0.5" fill="#D9DFE8" enable-background="new    " d="M24.6,420.8c-0.7-0.3-1.1-1.1-0.8-1.8c0-0.1,0-0.1,0-0.2l0,0
	c0-0.4-0.3-0.8-0.8-0.8c-0.2,0-0.5,0.1-0.6,0.3l0,0l-0.1,0.1c-0.3,0.7-1.1,1.1-1.8,0.8c-0.1,0-0.1,0-0.2,0l0,0
	c-0.4,0-0.8,0.3-0.8,0.8c0,0.2,0.1,0.5,0.3,0.6l0,0l0.1,0.1c0.7,0.3,1.1,1.1,0.8,1.8c0,0.1,0,0.1,0,0.2l0,0c0,0.4,0.3,0.8,0.8,0.8
	c0.2,0,0.5-0.1,0.6-0.3l0,0l0.1-0.1c0.3-0.7,1.1-1.1,1.8-0.8c0.1,0,0.1,0,0.2,0l0,0c0.4,0,0.8-0.3,0.8-0.8c0-0.2-0.1-0.5-0.3-0.6
	l0,0C24.7,420.9,24.7,420.9,24.6,420.8z"/>
<path opacity="0.5" fill="#D9DFE8" enable-background="new    " d="M73.6,490.7c-0.7-0.3-1.1-1.1-0.8-1.8c0-0.1,0-0.1,0-0.2l0,0
	c0-0.4-0.3-0.8-0.8-0.8c-0.2,0-0.5,0.1-0.6,0.3l0,0l-0.1,0.1c-0.3,0.7-1.1,1.1-1.8,0.8c-0.1,0-0.1,0-0.2,0l0,0
	c-0.4,0-0.8,0.3-0.8,0.8c0,0.2,0.1,0.5,0.3,0.6l0,0l0.1,0.1c0.7,0.3,1.1,1.1,0.8,1.8c0,0.1,0,0.1,0,0.2l0,0c0,0.4,0.3,0.8,0.8,0.8
	c0.2,0,0.5-0.1,0.6-0.3l0,0l0.1-0.1c0.3-0.7,1.1-1.1,1.8-0.8c0.1,0,0.1,0,0.2,0l0,0c0.4,0,0.8-0.3,0.8-0.8c0-0.2-0.1-0.5-0.3-0.6
	l0,0C73.7,490.8,73.7,490.8,73.6,490.7z"/>
<circle opacity="0.5" fill="#CDDED8" enable-background="new    " cx="309.3" cy="551.7" r="2.5"/>
<circle opacity="0.5" fill="#CDDED8" enable-background="new    " cx="221.2" cy="32" r="2.5"/>
<g opacity="0.5">
	
		<rect x="502.4" y="460.1" transform="matrix(1.260904e-02 -0.9999 0.9999 1.260904e-02 33.0893 960.6925)" fill="#CDDED8" width="1.2" height="7"/>
	
		<rect x="499.5" y="463" transform="matrix(1.260904e-02 -0.9999 0.9999 1.260904e-02 33.0856 960.6887)" fill="#CDDED8" width="7" height="1.2"/>
</g>
<path opacity="0.5" fill="#D9DFE8" enable-background="new    " d="M301.6,52.2c0.3-0.7,1.1-1.1,1.8-0.8c0.1,0,0.1,0,0.2,0l0,0
	c0.4,0,0.8-0.3,0.8-0.7c0-0.2-0.1-0.5-0.3-0.6l0,0L304,50c-0.7-0.3-1.1-1.1-0.8-1.8c0-0.1,0-0.1,0-0.2l0,0c0-0.4-0.3-0.8-0.7-0.8
	c-0.2,0-0.5,0.1-0.6,0.3l0,0l-0.1,0.1c-0.3,0.7-1.1,1.1-1.8,0.8c-0.1,0-0.1,0-0.2,0l0,0c-0.4,0-0.8,0.3-0.8,0.7
	c0,0.2,0.1,0.5,0.3,0.6l0,0l0.1,0.1c0.7,0.3,1.1,1.1,0.8,1.8c0,0.1,0,0.1,0,0.2l0,0c0,0.4,0.3,0.8,0.7,0.8c0.2,0,0.5-0.1,0.6-0.3
	l0,0C301.5,52.3,301.6,52.3,301.6,52.2z"/>
<ellipse transform="matrix(1.260904e-02 -0.9999 0.9999 1.260904e-02 -69.0287 1082.2953)" opacity="0.5" fill="#CDDED8" enable-background="new    " cx="513.5" cy="576.1" rx="2.5" ry="2.5"/>
<g opacity="0.5">
	
		<rect x="100.9" y="60" transform="matrix(1.260904e-02 -0.9999 0.9999 1.260904e-02 36.7605 164.2433)" fill="#CDDED8" width="1.2" height="7"/>
	
		<rect x="98" y="62.9" transform="matrix(1.260904e-02 -0.9999 0.9999 1.260904e-02 36.7643 164.247)" fill="#CDDED8" width="7" height="1.2"/>
</g>
<g opacity="0.5">
	
		<rect x="500.4" y="274.1" transform="matrix(1.260904e-02 -0.9999 0.9999 1.260904e-02 217.1326 775.0487)" fill="#CDDED8" width="1.2" height="7"/>
	
		<rect x="497.5" y="277" transform="matrix(1.260904e-02 -0.9999 0.9999 1.260904e-02 217.1362 775.0526)" fill="#CDDED8" width="7" height="1.2"/>
</g>
<path opacity="0.5" fill="#D9DFE8" enable-background="new    " d="M529.4,212.3c-0.3,0.7-1.1,1.1-1.8,0.8c-0.1,0-0.1,0-0.2,0l0,0
	c-0.4,0-0.8,0.3-0.8,0.7c0,0.2,0.1,0.5,0.3,0.6l0,0l0.1,0.1c0.7,0.3,1.1,1.1,0.8,1.8c0,0.1,0,0.1,0,0.2l0,0c0,0.4,0.3,0.8,0.7,0.8
	c0.2,0,0.5-0.1,0.6-0.3l0,0l0.1-0.1c0.3-0.7,1.1-1.1,1.8-0.8c0.1,0,0.1,0,0.2,0l0,0c0.4,0,0.8-0.3,0.8-0.7c0-0.2-0.1-0.5-0.3-0.6
	l0,0l-0.1-0.1c-0.7-0.3-1.1-1.1-0.8-1.8c0-0.1,0-0.1,0-0.2l0,0c0-0.4-0.3-0.8-0.7-0.8c-0.2,0-0.5,0.1-0.6,0.3l0,0
	C529.5,212.2,529.5,212.3,529.4,212.3z"/>
<ellipse transform="matrix(1.260904e-02 -0.9999 0.9999 1.260904e-02 424.6659 569.0853)" opacity="0.5" fill="#CDDED8" enable-background="new    " cx="500.5" cy="69.5" rx="2.5" ry="2.5"/>
<ellipse transform="matrix(1.260904e-02 -0.9999 0.9999 1.260904e-02 -2.6366 66.3929)" opacity="0.5" fill="#CDDED8" enable-background="new    " cx="32.3" cy="34.5" rx="2.5" ry="2.5"/>
<ellipse transform="matrix(1.260904e-02 -0.9999 0.9999 1.260904e-02 -175.4775 237.068)" opacity="0.5" fill="#CDDED8" enable-background="new    " cx="32.3" cy="207.4" rx="2.5" ry="2.5"/>
<g opacity="0.5">
	
		<rect x="12.9" y="313.9" transform="matrix(1.260904e-02 -0.9999 0.9999 1.260904e-02 -304.0609 326.8982)" fill="#CDDED8" width="1.2" height="7"/>
	
		<rect x="10" y="316.8" transform="matrix(1.260904e-02 -0.9999 0.9999 1.260904e-02 -304.0571 326.902)" fill="#CDDED8" width="7" height="1.2"/>
</g>
<g opacity="0.5">
	
		<rect x="34.2" y="560.2" transform="matrix(1.260904e-02 -0.9999 0.9999 1.260904e-02 -529.2946 591.3888)" fill="#CDDED8" width="1.2" height="7"/>
	
		<rect x="31.3" y="563.1" transform="matrix(1.260904e-02 -0.9999 0.9999 1.260904e-02 -529.2907 591.3928)" fill="#CDDED8" width="7" height="1.2"/>
</g>
<path opacity="0.5" fill="#D9DFE8" enable-background="new    " d="M418.5,546.9c-0.3,0.7-1.1,1.1-1.8,0.8c-0.1,0-0.1,0-0.2,0l0,0
	c-0.4,0-0.8,0.3-0.8,0.7c0,0.2,0.1,0.5,0.3,0.6l0,0l0.1,0.1c0.7,0.3,1.1,1.1,0.8,1.8c0,0.1,0,0.1,0,0.2l0,0c0,0.4,0.3,0.8,0.7,0.8
	c0.2,0,0.5-0.1,0.6-0.3l0,0l0.1-0.1c0.3-0.7,1.1-1.1,1.8-0.8c0.1,0,0.1,0,0.2,0l0,0c0.4,0,0.8-0.3,0.8-0.7c0-0.2-0.1-0.5-0.3-0.6
	l0,0l-0.1-0.1c-0.7-0.3-1.1-1.1-0.8-1.8c0-0.1,0-0.1,0-0.2l0,0c0-0.4-0.3-0.8-0.7-0.8c-0.2,0-0.5,0.1-0.6,0.3l0,0
	C418.6,546.8,418.6,546.9,418.5,546.9z"/>
<g>
	
		<linearGradient id="SVGID_1_" gradientUnits="userSpaceOnUse" x1="253.7728" y1="128.7622" x2="253.7728" y2="466.2084" gradientTransform="matrix(1 0 0 -1 0 600)">
		<stop  offset="0" style="stop-color:#808080;stop-opacity:0.25"/>
		<stop  offset="0.54" style="stop-color:#808080;stop-opacity:0.12"/>
		<stop  offset="1" style="stop-color:#808080;stop-opacity:0.1"/>
	</linearGradient>
	<circle fill="url(#SVGID_1_)" cx="253.8" cy="302.5" r="168.7"/>
	<circle fill="none" stroke="#FFFFFF" stroke-miterlimit="10" cx="253.8" cy="302.5" r="164.6"/>
	<circle opacity="5.000000e-02" enable-background="new    " cx="200.6" cy="207.4" r="20.4"/>
	<circle opacity="5.000000e-02" enable-background="new    " cx="263.1" cy="426.3" r="20.4"/>
	<circle opacity="5.000000e-02" enable-background="new    " cx="283.5" cy="279.1" r="41.8"/>
	
		<linearGradient id="SVGID_2_" gradientUnits="userSpaceOnUse" x1="443.6163" y1="171.6305" x2="443.6163" y2="253.1641" gradientTransform="matrix(1 0 0 -1 -185 523.13)">
		<stop  offset="0" style="stop-color:#808080;stop-opacity:0.25"/>
		<stop  offset="0.54" style="stop-color:#808080;stop-opacity:0.12"/>
		<stop  offset="1" style="stop-color:#808080;stop-opacity:0.1"/>
	</linearGradient>
	<path fill="url(#SVGID_2_)" d="M319.9,351.5c-20.7,0-42.7-1-65.3-3c-50.1-4.4-96.8-13.2-131.4-24.8c-34.9-11.7-53.6-24.9-52.5-37.2
		c0.5-6.2,6-11.8,16.3-16.5l0.5,1.2c-9.8,4.5-15,9.7-15.5,15.5s3.8,11.9,12.9,18.2c8.9,6.1,21.9,12.1,38.7,17.7
		c34.6,11.6,81.2,20.4,131.1,24.8c50,4.4,97.4,3.9,133.4-1.4c17.5-2.6,31.4-6.2,41.2-10.6c10-4.6,15.4-9.8,15.9-15.6
		c0.6-6.6-5.4-13.8-17.3-20.9l0.7-1.1c12.5,7.5,18.5,14.9,17.9,22.2c-1.1,12.3-21.8,22-58.2,27.4C368.5,350,345.2,351.5,319.9,351.5
		z"/>
	<path opacity="0.5" fill="none" stroke="#BDBDBD" stroke-width="2" stroke-miterlimit="10" enable-background="new    " d="
		M428.4,296.8c11.8,7.1,18.2,14.4,17.6,21.5c-2.2,24.7-87.8,37.4-191.3,28.3C151.2,337.4,69.1,310,71.3,285.2
		c0.5-6.1,6.2-11.5,15.9-16"/>
	
		<linearGradient id="SVGID_3_" gradientUnits="userSpaceOnUse" x1="363.2367" y1="147.3909" x2="363.2367" y2="304.4686" gradientTransform="matrix(1 0 0 -1 -185 523.13)">
		<stop  offset="0" style="stop-color:#808080;stop-opacity:0.25"/>
		<stop  offset="0.54" style="stop-color:#808080;stop-opacity:0.12"/>
		<stop  offset="1" style="stop-color:#808080;stop-opacity:0.1"/>
	</linearGradient>
	<path fill="url(#SVGID_3_)" d="M274.9,375.7c-14.9-6.4-30.1-13.6-45.3-21.3c-44.8-22.9-84.7-48.6-112.5-72.4
		c-28-23.9-40.3-43.2-34.7-54.2c2.8-5.6,10-8.7,21.3-9.2l0.1,1.3c-10.8,0.5-17.6,3.4-20.2,8.5c-2.6,5.1-0.9,12.5,5.2,21.7
		c6,9,15.8,19.4,29.2,30.9c27.7,23.7,67.6,49.4,112.3,72.2c15.1,7.7,30.3,14.9,45.2,21.3L274.9,375.7z"/>
	<path fill="none" stroke="#BDBDBD" stroke-miterlimit="10" d="M277.3,375.1c-14.6-6.3-29.8-13.4-45.2-21.3
		C139.6,306.5,73.8,250.3,85.1,228.2c2.8-5.5,10-8.3,20.8-8.9"/>
	
		<linearGradient id="SVGID_4_" gradientUnits="userSpaceOnUse" x1="564.7149" y1="110.4842" x2="564.7149" y2="149.3875" gradientTransform="matrix(1 0 0 -1 -185 523.13)">
		<stop  offset="0" style="stop-color:#808080;stop-opacity:0.25"/>
		<stop  offset="0.54" style="stop-color:#808080;stop-opacity:0.12"/>
		<stop  offset="1" style="stop-color:#808080;stop-opacity:0.1"/>
	</linearGradient>
	<path fill="url(#SVGID_4_)" d="M396,412.6c-13.6,0-32.7-4.4-58.5-13.3l0.4-1.2c49.2,17,73.6,17.7,81.5,2.3c3-5.9,0.2-14.9-8.1-25.9
		l1-0.8c8.8,11.6,11.6,20.8,8.3,27.2C416.6,408.8,408.7,412.6,396,412.6z"/>
	<path fill="none" stroke="#BDBDBD" stroke-miterlimit="10" d="M411.8,372.8c8.3,11,11.5,20.2,8.2,26.6c-7.5,14.7-29.5,16.2-82.2-2"
		/>
	<g opacity="0.5">
		<rect x="444.4" y="111.9" fill="#CDDED8" width="1.7" height="9.5"/>
		<rect x="440.5" y="115.8" fill="#CDDED8" width="9.5" height="1.7"/>
	</g>
	<g opacity="0.5">
		<rect x="480.7" y="371.3" fill="#CDDED8" width="1.7" height="9.5"/>
		<rect x="476.8" y="375.2" fill="#CDDED8" width="9.5" height="1.7"/>
	</g>
	<g opacity="0.5">
		<rect x="109" y="134.8" fill="#CDDED8" width="1.7" height="9.5"/>
		<rect x="105.1" y="138.7" fill="#CDDED8" width="9.5" height="1.7"/>
	</g>
	<path opacity="0.5" fill="#D9DFE8" enable-background="new    " d="M158.5,487.7c-1-0.4-1.5-1.5-1.1-2.5c0-0.1,0-0.2,0-0.2l0,0
		c0-0.6-0.4-1.1-1-1.1c-0.3,0-0.6,0.1-0.8,0.4l0,0c0,0.1-0.1,0.1-0.1,0.2c-0.4,1-1.5,1.5-2.5,1.1c-0.1,0-0.2,0-0.2,0l0,0
		c-0.6,0-1.1,0.4-1.1,1c0,0.3,0.1,0.6,0.4,0.8l0,0c0.1,0,0.1,0.1,0.2,0.1c1,0.4,1.5,1.5,1.1,2.5c0,0.1,0,0.2,0,0.2l0,0
		c0,0.6,0.4,1.1,1,1.1c0.3,0,0.6-0.1,0.8-0.4l0,0c0-0.1,0.1-0.1,0.1-0.2c0.4-1,1.5-1.5,2.5-1.1c0.1,0,0.2,0,0.2,0l0,0
		c0.6,0,1.1-0.4,1.1-1c0-0.3-0.1-0.6-0.4-0.8l0,0C158.7,487.8,158.6,487.8,158.5,487.7z"/>
	<path opacity="0.5" fill="#D9DFE8" enable-background="new    " d="M260.8,494.5c-1-0.4-1.5-1.5-1.1-2.5c0-0.1,0-0.2,0-0.2l0,0
		c0-0.6-0.4-1.1-1-1.1c-0.3,0-0.6,0.1-0.8,0.4l0,0c0,0.1-0.1,0.1-0.1,0.2c-0.4,1-1.5,1.5-2.5,1.1c-0.1,0-0.2,0-0.2,0l0,0
		c-0.6,0-1.1,0.4-1.1,1c0,0.3,0.1,0.6,0.4,0.8l0,0c0.1,0,0.1,0.1,0.2,0.1c1,0.4,1.5,1.5,1.1,2.5c0,0.1,0,0.2,0,0.2l0,0
		c0,0.6,0.4,1.1,1,1.1c0.3,0,0.6-0.1,0.8-0.4l0,0c0-0.1,0.1-0.1,0.1-0.2c0.4-1,1.5-1.5,2.5-1.1c0.1,0,0.2,0,0.2,0l0,0
		c0.6,0,1.1-0.4,1.1-1c0-0.3-0.1-0.6-0.4-0.8l0,0C261,494.5,260.9,494.5,260.8,494.5z"/>
	<path opacity="0.5" fill="#D9DFE8" enable-background="new    " d="M463.2,224.4c-1-0.4-1.5-1.5-1.1-2.5c0-0.1,0-0.2,0-0.2l0,0
		c0-0.6-0.4-1.1-1-1.1c-0.3,0-0.6,0.1-0.8,0.4l0,0c0,0.1-0.1,0.1-0.1,0.2c-0.4,1-1.5,1.5-2.5,1.1c-0.1,0-0.2,0-0.2,0l0,0
		c-0.6,0-1.1,0.4-1.1,1c0,0.3,0.1,0.6,0.4,0.8l0,0c0.1,0,0.1,0.1,0.2,0.1c1,0.4,1.5,1.5,1.1,2.5c0,0.1,0,0.2,0,0.2l0,0
		c0,0.6,0.4,1.1,1,1.1c0.3,0,0.6-0.1,0.8-0.4l0,0c0-0.1,0.1-0.1,0.1-0.2c0.4-1,1.5-1.5,2.5-1.1c0.1,0,0.2,0,0.2,0l0,0
		c0.6,0,1.1-0.4,1.1-1c0-0.3-0.1-0.6-0.4-0.8l0,0C463.4,224.5,463.3,224.5,463.2,224.4z"/>
	<path opacity="0.5" fill="#D9DFE8" enable-background="new    " d="M64.7,372.4c-1-0.4-1.5-1.5-1.1-2.5c0-0.1,0-0.2,0-0.2l0,0
		c0-0.6-0.4-1.1-1-1.1c-0.3,0-0.6,0.1-0.8,0.4l0,0c0,0.1-0.1,0.1-0.1,0.2c-0.4,1-1.5,1.5-2.5,1.1c-0.1,0-0.2,0-0.2,0l0,0
		c-0.6,0-1.1,0.4-1.1,1c0,0.3,0.1,0.6,0.4,0.8l0,0c0.1,0,0.1,0.1,0.2,0.1c1,0.4,1.5,1.5,1.1,2.5c0,0.1,0,0.2,0,0.2l0,0
		c0,0.6,0.4,1.1,1,1.1c0.3,0,0.6-0.1,0.8-0.4l0,0c0-0.1,0.1-0.1,0.1-0.2c0.4-1,1.5-1.5,2.5-1.1c0.1,0,0.2,0,0.2,0l0,0
		c0.6,0,1.1-0.4,1.1-1c0-0.3-0.1-0.6-0.4-0.8l0,0C64.9,372.4,64.8,372.4,64.7,372.4z"/>
	<circle opacity="0.5" fill="#D9DFE8" enable-background="new    " cx="330.9" cy="121.9" r="3.4"/>
	<circle opacity="0.5" fill="#CDDED8" enable-background="new    " cx="207.4" cy="95" r="3.4"/>
	<circle opacity="0.5" fill="#D8EAED" enable-background="new    " cx="394.6" cy="470.8" r="3.4"/>
	
		<linearGradient id="SVGID_5_" gradientUnits="userSpaceOnUse" x1="648.2539" y1="-30.3138" x2="648.2539" y2="34.2059" gradientTransform="matrix(0.461 -0.8874 -0.8874 -0.461 10.8961 963.6699)">
		<stop  offset="0" style="stop-color:#808080;stop-opacity:0.25"/>
		<stop  offset="0.54" style="stop-color:#808080;stop-opacity:0.12"/>
		<stop  offset="1" style="stop-color:#808080;stop-opacity:0.1"/>
	</linearGradient>
	<path fill="url(#SVGID_5_)" d="M315.6,365.3c-1.9-1-4.3-0.3-5.4,1.7l-0.4,0.8l-0.9-0.5l-8.3-4.3l-1.8-0.9c-0.3-0.1-0.5-0.2-0.8-0.2
		c-7.9-2.6-14.3,2.4-18.4,10.3l0,0c-1.5,2.7-2.4,5.6-2.9,8.7l-0.1,0c-0.5,3.3,0,6.3,1.6,8.9l0.1-0.3c0.8,1.3,1.8,2.5,3,3.4
		c0.1,0.3,0.3,0.6,0.6,0.8l11.4,5.9l-0.9,1.7c-1,1.9-0.3,4.3,1.7,5.4l0,0l2.7-5.2l14,7.3l0.9-1.8l0.9-1.8l1.4-2.6h0l-3.2,6.1
		l6.7,3.5c8.2,4.2,14.4-1.2,18.9-9.6v0l0.3-0.5l0,0l0,0v0l0,0l0,0l0.2-0.5l0,0c4.3-8.6,5.2-16.8-3-21l-6.7-3.4l-3.7,7.1h0l1.9-3.6
		l0.9-1.7l1-1.9l-14-7.3L315.6,365.3L315.6,365.3z M294.3,395.5L294.3,395.5L294.3,395.5L294.3,395.5z"/>
	
		<rect x="296.9" y="381.6" transform="matrix(0.461 -0.8874 0.8874 0.461 -177.1785 486.4554)" fill="none" stroke="#4F617D" stroke-miterlimit="10" width="29.9" height="14.9"/>
	<path fill="#FF656A" d="M335.1,401.1L335.1,401.1c-4.3,8.2-10.2,13.6-18.1,9.6l-6.3-3.3l15.5-29.8l6.3,3.3
		C340.4,384.9,339.4,392.8,335.1,401.1z"/>
	<path fill="#4A5C81" d="M335.1,401L335.1,401L335.1,401z"/>
	<path fill="none" stroke="#4A5C81" stroke-width="0.75" stroke-miterlimit="10" d="M330.3,408.1c2-2.1,3.6-4.4,4.9-7
		c1.2-2.2,2.1-4.5,2.7-6.9l-2.7-1.4l-7.3,14.1L330.3,408.1z"/>
	<path fill="none" stroke="#4A5C81" stroke-width="0.75" stroke-miterlimit="10" d="M313.7,401.6l9-17.4l0,0l0.5,0.3
		c1.1,0.6,1.5,1.9,1,3l0,0l-7,13.4c-0.6,1.1-1.9,1.5-3,1l0,0L313.7,401.6L313.7,401.6z"/>
	<path fill="#FF6469" d="M310.7,373.5l-12.1,23.3l13.9,7.3l-1.7,3.3l-25.5-13.2c-0.3-0.2-0.6-0.4-0.8-0.7
		c-7.4-4.6-7.1-12.6-3.1-20.5c3.2-6.1,7.8-10.4,13.4-10.4c2,0,4.1,0.5,6.4,1.7l7.8,4.1l0,0l17.4,9l-1.7,3.3L310.7,373.5z"/>
	<path fill="#FFF6D5" d="M280,389.6l3.1-6l-4.6-2.4C278.1,384.3,278.5,387.1,280,389.6z"/>
	<path fill="#FFF6D5" d="M293.9,362.8l-3.1,6l-4.6-2.4C288.5,364.3,291.1,362.9,293.9,362.8z"/>
	<path fill="none" stroke="#FF6469" stroke-width="0.75" stroke-miterlimit="10" d="M293.1,401.1l1.2-2.3l0,0l3.3,1.7l0,0l-2.6,5
		l0,0l-0.6-0.3C292.9,404.4,292.3,402.6,293.1,401.1C293.1,401.1,293.1,401.1,293.1,401.1z"/>
	<path fill="none" stroke="#FF6469" stroke-width="0.75" stroke-miterlimit="10" d="M315.2,365.7l-2.6,5l0,0l-3.3-1.7l0,0l1.2-2.3
		c0.8-1.5,2.6-2,4-1.3l0,0L315.2,365.7L315.2,365.7z"/>
	<path fill="none" stroke="#53678B" stroke-width="0.75" stroke-miterlimit="10" d="M310.9,372.6l-13,25l-11.2-10.1
		c-1.8-1.6-2.3-4.2-1.2-6.4l4.8-9.3c1.1-2.2,3.6-3.3,5.9-2.7L310.9,372.6z"/>
	<path fill="none" stroke="#658BC8" stroke-width="0.75" stroke-miterlimit="10" d="M298.5,396.7c-5.5-2.9-7.3-10.2-4.1-16.4
		c3.2-6.2,10.3-8.9,15.8-6"/>
	<polygon fill="#FF656A" points="311.8,373.2 298.9,398 296.4,396.7 298.1,395.4 308.7,375 309.3,371.9 	"/>
	
		<rect x="304.2" y="386.3" transform="matrix(0.461 -0.8874 0.8874 0.461 -179.4479 480.8277)" fill="#53678B" width="3.7" height="3.7"/>
	
		<ellipse transform="matrix(0.461 -0.8874 0.8874 0.461 -179.3112 482.7671)" fill="#53678B" cx="307.7" cy="389" rx="3.7" ry="0.9"/>
	<path opacity="5.000000e-02" enable-background="new    " d="M316.8,406.3c2.9,2,6.9,1.2,8.9-1.7c0.1-0.1,0.2-0.2,0.2-0.3"/>
	<path opacity="5.000000e-02" enable-background="new    " d="M328.5,383.9c3.3,1.3,5,4.9,3.7,8.2c0,0.1-0.1,0.2-0.2,0.4"/>
	<path opacity="5.000000e-02" enable-background="new    " d="M288.2,384.1c0,0-0.7-6.7,6-11.6"/>
	<path opacity="5.000000e-02" enable-background="new    " d="M291.3,385.7c0,0-0.7-6.7,6-11.6"/>
	
		<ellipse transform="matrix(0.461 -0.8874 0.8874 0.461 -183.8302 473.3491)" fill="#4A77BE" cx="297.7" cy="388" rx="2.8" ry="2.8"/>
	
		<ellipse transform="matrix(0.461 -0.8874 0.8874 0.461 -173.2558 471.6718)" fill="#4A77BE" cx="301.6" cy="378.5" rx="1.9" ry="1.9"/>
	<path fill="none" stroke="#CDEFFF" stroke-width="0.5" stroke-miterlimit="10" d="M318.5,386.7L318.5,386.7l-2.2,4.3l-5.1-2.7
		l1.5-2.9l-3.6,0.7c-0.6,0.1-1.2-0.3-1.3-0.9l-0.1-0.5c-0.1-0.6,0.3-1.2,0.9-1.3l6-1.2c0.5-0.1,0.9,0.1,1.2,0.5
		c0.3,0,0.6,0.1,0.9,0.3l1,0.5C318.7,384.2,319.1,385.6,318.5,386.7z"/>
	<path opacity="5.000000e-02" enable-background="new    " d="M311.2,386.4l-0.6-2.7l0,0l3.3-0.7c1.2-0.2,2.4,0.5,2.7,1.8l0,0
		l0.1,0.5l0,0L311.2,386.4L311.2,386.4z"/>
	<path fill="none" stroke="#CDEFFF" stroke-width="0.5" stroke-miterlimit="10" d="M313.6,396.4l-2.3,4.3c-0.1,0.2-0.2,0.3-0.3,0.5
		l-0.5,1c-1,1.7-3.5,2.1-5.6,1l-2.4-1.3l0,0l-4.1-2.1c-0.6-0.3-0.8-1-0.5-1.6l0.3-0.5c0.3-0.6,1-0.8,1.6-0.5l4.1,2.1l0,0l2.2,0.2
		c-0.1-0.5-0.1-1.1,0.2-1.6c0,0,0,0,0,0l2.3-4.3L313.6,396.4z"/>
	<path opacity="5.000000e-02" enable-background="new    " d="M310.6,396.5c0.8,0.4,1.8,0.6,2.8,0.4l0.1-0.3l-5-2.6
		C308.9,395.1,309.6,395.9,310.6,396.5z"/>
	<path opacity="5.000000e-02" enable-background="new    " d="M314.7,388.6c0.9,0.4,1.5,1.2,1.9,2l-0.1,0.3l-5-2.6
		C312.5,388,313.7,388.1,314.7,388.6z"/>
	
		<ellipse transform="matrix(0.461 -0.8874 0.8874 0.461 -179.7074 488.9692)" fill="#B23636" cx="312.6" cy="392.4" rx="4.3" ry="4.3"/>
	
		<ellipse transform="matrix(0.461 -0.8874 0.8874 0.461 -179.8809 488.8127)" fill="none" stroke="#CDEFFF" stroke-width="0.5" stroke-miterlimit="10" cx="312.4" cy="392.5" rx="4.3" ry="4.3"/>
	<path fill="none" stroke="#658BC8" stroke-width="0.5" stroke-miterlimit="10" d="M308.6,390.4c-0.7,1.4-0.6,3,0.2,4.3
		c2.4-0.1,4.2-2.1,4.1-4.5c0-0.8-0.3-1.5-0.7-2.1C310.7,388.2,309.3,389.1,308.6,390.4z"/>
</g>
</svg>
