<?xml version="1.0" encoding="utf-8"?>
<!-- Generator: Adobe Illustrator 21.1.0, SVG Export Plug-In . SVG Version: 6.00 Build 0)  -->
<svg version="1.0" id="Capa_1" xmlns="http://www.w3.org/2000/svg" xmlns:xlink="http://www.w3.org/1999/xlink" x="0px" y="0px"
	 viewBox="0 0 554 600" enable-background="new 0 0 554 600" xml:space="preserve">
<linearGradient id="SVGID_1_" gradientUnits="userSpaceOnUse" x1="250.3315" y1="174.8113" x2="250.3315" y2="423.6087" gradientTransform="matrix(1 0 0 -1 0 602)">
	<stop  offset="0" style="stop-color:#808080;stop-opacity:0.25"/>
	<stop  offset="0.54" style="stop-color:#808080;stop-opacity:0.12"/>
	<stop  offset="1" style="stop-color:#808080;stop-opacity:0.1"/>
</linearGradient>
<circle fill="url(#SVGID_1_)" cx="250.3" cy="302.8" r="124.4"/>
<circle fill="#FFFFFF" cx="250.3" cy="302.8" r="121.3"/>
<circle opacity="5.000000e-02" enable-background="new    " cx="211.1" cy="232.7" r="15.1"/>
<circle opacity="5.000000e-02" enable-background="new    " cx="257.2" cy="394.1" r="15.1"/>
<circle opacity="5.000000e-02" enable-background="new    " cx="272.3" cy="285.5" r="30.8"/>
<linearGradient id="SVGID_2_" gradientUnits="userSpaceOnUse" x1="438.9026" y1="186.2238" x2="438.9026" y2="246.3381" gradientTransform="matrix(1 0 0 -1 -185 525.13)">
	<stop  offset="0" style="stop-color:#808080;stop-opacity:0.25"/>
	<stop  offset="0.54" style="stop-color:#808080;stop-opacity:0.12"/>
	<stop  offset="1" style="stop-color:#808080;stop-opacity:0.1"/>
</linearGradient>
<path fill="url(#SVGID_2_)" d="M299.1,338.9c-15.3,0-31.5-0.7-48.1-2.2c-36.9-3.3-71.3-9.8-96.9-18.3c-25.8-8.6-39.5-18.4-38.7-27.4
	c0.4-4.6,4.4-8.7,12-12.2l0.4,0.9c-7.2,3.3-11.1,7.2-11.5,11.4s2.8,8.8,9.5,13.4c6.6,4.5,16.2,8.9,28.6,13.1
	c25.5,8.5,59.8,15,96.7,18.3c36.9,3.3,71.8,2.9,98.4-1.1c12.9-1.9,23.1-4.6,30.4-7.9c7.4-3.4,11.3-7.2,11.7-11.5
	c0.4-4.9-4-10.2-12.7-15.4l0.5-0.8c9.2,5.5,13.7,11,13.2,16.3c-0.8,9.1-16,16.2-42.9,20.2C334.9,337.8,317.7,338.9,299.1,338.9z"/>
<path opacity="0.5" fill="none" stroke="#BDBDBD" stroke-width="3" stroke-miterlimit="10" enable-background="new    " d="
	M379.1,298.6c8.7,5.2,13.4,10.6,13,15.9c-1.6,18.2-64.7,27.6-141,20.8c-76.3-6.7-136.8-27-135.2-45.2c0.4-4.5,4.6-8.5,11.7-11.8"/>
<linearGradient id="SVGID_3_" gradientUnits="userSpaceOnUse" x1="379.6392" y1="168.3521" x2="379.6392" y2="284.1646" gradientTransform="matrix(1 0 0 -1 -185 525.13)">
	<stop  offset="0" style="stop-color:#808080;stop-opacity:0.25"/>
	<stop  offset="0.54" style="stop-color:#808080;stop-opacity:0.12"/>
	<stop  offset="1" style="stop-color:#808080;stop-opacity:0.1"/>
</linearGradient>
<path fill="url(#SVGID_3_)" d="M265.9,356.8c-11-4.7-22.2-10-33.4-15.7c-33-16.9-62.5-35.8-83-53.3c-20.6-17.7-29.7-31.8-25.6-39.9
	c2.1-4.1,7.4-6.4,15.7-6.8l0,0.9c-8,0.4-13,2.5-14.9,6.3s-0.7,9.2,3.8,16c4.4,6.7,11.6,14.3,21.6,22.8
	c20.4,17.5,49.8,36.4,82.8,53.2c11.1,5.7,22.3,11,33.3,15.7L265.9,356.8z"/>
<path fill="none" stroke="#BDBDBD" stroke-width="3" stroke-miterlimit="10" d="M267.7,356.3c-10.8-4.7-22-9.9-33.3-15.7
	C166.2,305.8,117.7,264.3,126,248c2.1-4,7.4-6.1,15.3-6.5"/>
<linearGradient id="SVGID_4_" gradientUnits="userSpaceOnUse" x1="528.188" y1="141.1409" x2="528.188" y2="169.8241" gradientTransform="matrix(1 0 0 -1 -185 525.13)">
	<stop  offset="0" style="stop-color:#808080;stop-opacity:0.25"/>
	<stop  offset="0.54" style="stop-color:#808080;stop-opacity:0.12"/>
	<stop  offset="1" style="stop-color:#808080;stop-opacity:0.1"/>
</linearGradient>
<path fill="url(#SVGID_4_)" d="M355.2,384c-10,0-24.1-3.3-43.1-9.8l0.3-0.9c36.3,12.5,54.3,13,60.1,1.7c2.2-4.4,0.1-10.9-6-19.1
	l0.8-0.6c6.5,8.6,8.5,15.3,6.1,20.1C370.4,381.1,364.6,384,355.2,384z"/>
<path fill="none" stroke="#BDBDBD" stroke-width="3" stroke-miterlimit="10" d="M366.8,354.6c6.1,8.1,8.5,14.9,6,19.6
	c-5.5,10.8-21.8,11.9-60.6-1.5"/>
<g opacity="0.5">
	<rect x="139.4" y="415.3" fill="#CDDED8" width="1.2" height="7"/>
	<rect x="136.6" y="418.2" fill="#CDDED8" width="7" height="1.2"/>
</g>
<g opacity="0.5">
	<rect x="229.4" y="508.3" fill="#CDDED8" width="1.2" height="7"/>
	<rect x="226.6" y="511.2" fill="#CDDED8" width="7" height="1.2"/>
</g>
<g opacity="0.5">
	<rect x="390.9" y="162.2" fill="#CDDED8" width="1.2" height="7"/>
	<rect x="388" y="165.1" fill="#CDDED8" width="7" height="1.2"/>
</g>
<g opacity="0.5">
	<rect x="417.7" y="353.5" fill="#CDDED8" width="1.2" height="7"/>
	<rect x="414.8" y="356.4" fill="#CDDED8" width="7" height="1.2"/>
</g>
<g opacity="0.5">
	<rect x="143.6" y="179.1" fill="#CDDED8" width="1.2" height="7"/>
	<rect x="140.7" y="182" fill="#CDDED8" width="7" height="1.2"/>
</g>
<g opacity="0.5">
	<rect x="279.6" y="113.1" fill="#CDDED8" width="1.2" height="7"/>
	<rect x="276.7" y="116" fill="#CDDED8" width="7" height="1.2"/>
</g>
<g opacity="0.5">
	<rect x="147.6" y="117.1" fill="#CDDED8" width="1.2" height="7"/>
	<rect x="144.7" y="120" fill="#CDDED8" width="7" height="1.2"/>
</g>
<g opacity="0.5">
	<rect x="418.6" y="447.1" fill="#CDDED8" width="1.2" height="7"/>
	<rect x="415.7" y="450" fill="#CDDED8" width="7" height="1.2"/>
</g>
<path opacity="0.5" fill="#D9DFE8" enable-background="new    " d="M180.1,457.3c-0.7-0.3-1.1-1.1-0.8-1.8c0-0.1,0-0.1,0-0.2l0,0
	c0-0.4-0.3-0.8-0.8-0.8c-0.2,0-0.5,0.1-0.6,0.3l0,0c0,0-0.1,0.1-0.1,0.1c-0.3,0.7-1.1,1.1-1.8,0.8c-0.1,0-0.1,0-0.2,0l0,0
	c-0.4,0-0.8,0.3-0.8,0.8c0,0.2,0.1,0.5,0.3,0.6l0,0c0,0,0.1,0.1,0.1,0.1c0.7,0.3,1.1,1.1,0.8,1.8c0,0.1,0,0.1,0,0.2l0,0
	c0,0.4,0.3,0.8,0.8,0.8c0.2,0,0.5-0.1,0.6-0.3l0,0c0,0,0.1-0.1,0.1-0.1c0.3-0.7,1.1-1.1,1.8-0.8c0.1,0,0.1,0,0.2,0l0,0
	c0.4,0,0.8-0.3,0.8-0.8c0-0.2-0.1-0.5-0.3-0.6l0,0C180.2,457.4,180.2,457.4,180.1,457.3z"/>
<path opacity="0.5" fill="#D9DFE8" enable-background="new    " d="M108.1,443.3c-0.7-0.3-1.1-1.1-0.8-1.8c0-0.1,0-0.1,0-0.2l0,0
	c0-0.4-0.3-0.8-0.8-0.8c-0.2,0-0.5,0.1-0.6,0.3l0,0c0,0-0.1,0.1-0.1,0.1c-0.3,0.7-1.1,1.1-1.8,0.8c-0.1,0-0.1,0-0.2,0l0,0
	c-0.4,0-0.8,0.3-0.8,0.8c0,0.2,0.1,0.5,0.3,0.6l0,0c0,0,0.1,0.1,0.1,0.1c0.7,0.3,1.1,1.1,0.8,1.8c0,0.1,0,0.1,0,0.2l0,0
	c0,0.4,0.3,0.8,0.8,0.8c0.2,0,0.5-0.1,0.6-0.3l0,0c0,0,0.1-0.1,0.1-0.1c0.3-0.7,1.1-1.1,1.8-0.8c0.1,0,0.1,0,0.2,0l0,0
	c0.4,0,0.8-0.3,0.8-0.8c0-0.2-0.1-0.5-0.3-0.6l0,0C108.2,443.4,108.2,443.4,108.1,443.3z"/>
<path opacity="0.5" fill="#D9DFE8" enable-background="new    " d="M255.5,444.3c-0.7-0.3-1.1-1.1-0.8-1.8c0-0.1,0-0.1,0-0.2l0,0
	c0-0.4-0.3-0.8-0.8-0.8c-0.2,0-0.5,0.1-0.6,0.3l0,0c0,0-0.1,0.1-0.1,0.1c-0.3,0.7-1.1,1.1-1.8,0.8c-0.1,0-0.1,0-0.2,0l0,0
	c-0.4,0-0.8,0.3-0.8,0.8c0,0.2,0.1,0.5,0.3,0.6l0,0c0,0,0.1,0.1,0.1,0.1c0.7,0.3,1.1,1.1,0.8,1.8c0,0.1,0,0.1,0,0.2l0,0
	c0,0.4,0.3,0.8,0.8,0.8c0.2,0,0.5-0.1,0.6-0.3l0,0c0,0,0.1-0.1,0.1-0.1c0.3-0.7,1.1-1.1,1.8-0.8c0.1,0,0.1,0,0.2,0l0,0
	c0.4,0,0.8-0.3,0.8-0.8c0-0.2-0.1-0.5-0.3-0.6l0,0C255.7,444.4,255.6,444.3,255.5,444.3z"/>
<path opacity="0.5" fill="#D9DFE8" enable-background="new    " d="M345.5,484.3c-0.7-0.3-1.1-1.1-0.8-1.8c0-0.1,0-0.1,0-0.2l0,0
	c0-0.4-0.3-0.8-0.8-0.8c-0.2,0-0.5,0.1-0.6,0.3l0,0c0,0-0.1,0.1-0.1,0.1c-0.3,0.7-1.1,1.1-1.8,0.8c-0.1,0-0.1,0-0.2,0l0,0
	c-0.4,0-0.8,0.3-0.8,0.8c0,0.2,0.1,0.5,0.3,0.6l0,0c0,0,0.1,0.1,0.1,0.1c0.7,0.3,1.1,1.1,0.8,1.8c0,0.1,0,0.1,0,0.2l0,0
	c0,0.4,0.3,0.8,0.8,0.8c0.2,0,0.5-0.1,0.6-0.3l0,0c0,0,0.1-0.1,0.1-0.1c0.3-0.7,1.1-1.1,1.8-0.8c0.1,0,0.1,0,0.2,0l0,0
	c0.4,0,0.8-0.3,0.8-0.8c0-0.2-0.1-0.5-0.3-0.6l0,0C345.7,484.4,345.6,484.3,345.5,484.3z"/>
<path opacity="0.5" fill="#D9DFE8" enable-background="new    " d="M404.8,245.2c-0.7-0.3-1.1-1.1-0.8-1.8c0-0.1,0-0.1,0-0.2l0,0
	c0-0.4-0.3-0.8-0.8-0.8c-0.2,0-0.5,0.1-0.6,0.3l0,0c0,0-0.1,0.1-0.1,0.1c-0.3,0.7-1.1,1.1-1.8,0.8c-0.1,0-0.1,0-0.2,0l0,0
	c-0.4,0-0.8,0.3-0.8,0.8c0,0.2,0.1,0.5,0.3,0.6l0,0c0,0,0.1,0.1,0.1,0.1c0.7,0.3,1.1,1.1,0.8,1.8c0,0.1,0,0.1,0,0.2l0,0
	c0,0.4,0.3,0.8,0.8,0.8c0.2,0,0.5-0.1,0.6-0.3l0,0c0,0,0.1-0.1,0.1-0.1c0.3-0.7,1.1-1.1,1.8-0.8c0.1,0,0.1,0,0.2,0l0,0
	c0.4,0,0.8-0.3,0.8-0.8c0-0.2-0.1-0.5-0.3-0.6l0,0C404.9,245.3,404.8,245.2,404.8,245.2z"/>
<path opacity="0.5" fill="#D9DFE8" enable-background="new    " d="M213.8,148.2c-0.7-0.3-1.1-1.1-0.8-1.8c0-0.1,0-0.1,0-0.2l0,0
	c0-0.4-0.3-0.8-0.8-0.8c-0.2,0-0.5,0.1-0.6,0.3l0,0c0,0-0.1,0.1-0.1,0.1c-0.3,0.7-1.1,1.1-1.8,0.8c-0.1,0-0.1,0-0.2,0l0,0
	c-0.4,0-0.8,0.3-0.8,0.8c0,0.2,0.1,0.5,0.3,0.6l0,0c0,0,0.1,0.1,0.1,0.1c0.7,0.3,1.1,1.1,0.8,1.8c0,0.1,0,0.1,0,0.2l0,0
	c0,0.4,0.3,0.8,0.8,0.8c0.2,0,0.5-0.1,0.6-0.3l0,0c0,0,0.1-0.1,0.1-0.1c0.3-0.7,1.1-1.1,1.8-0.8c0.1,0,0.1,0,0.2,0l0,0
	c0.4,0,0.8-0.3,0.8-0.8c0-0.2-0.1-0.5-0.3-0.6l0,0C213.9,148.3,213.8,148.2,213.8,148.2z"/>
<path opacity="0.5" fill="#D9DFE8" enable-background="new    " d="M111,354.3c-0.7-0.3-1.1-1.1-0.8-1.8c0-0.1,0-0.1,0-0.2l0,0
	c0-0.4-0.3-0.8-0.8-0.8c-0.2,0-0.5,0.1-0.6,0.3l0,0c0,0-0.1,0.1-0.1,0.1c-0.3,0.7-1.1,1.1-1.8,0.8c-0.1,0-0.1,0-0.2,0l0,0
	c-0.4,0-0.8,0.3-0.8,0.8c0,0.2,0.1,0.5,0.3,0.6l0,0c0,0,0.1,0.1,0.1,0.1c0.7,0.3,1.1,1.1,0.8,1.8c0,0.1,0,0.1,0,0.2l0,0
	c0,0.4,0.3,0.8,0.8,0.8c0.2,0,0.5-0.1,0.6-0.3l0,0c0,0,0.1-0.1,0.1-0.1c0.3-0.7,1.1-1.1,1.8-0.8c0.1,0,0.1,0,0.2,0l0,0
	c0.4,0,0.8-0.3,0.8-0.8c0-0.2-0.1-0.5-0.3-0.6l0,0C111.1,354.3,111,354.3,111,354.3z"/>
<circle opacity="0.5" fill="#D8EAED" enable-background="new    " cx="105.6" cy="252.5" r="2.5"/>
<circle opacity="0.5" fill="#D9DFE8" enable-background="new    " cx="307.2" cy="169.7" r="2.5"/>
<circle opacity="0.5" fill="#CDDED8" enable-background="new    " cx="108.2" cy="145.5" r="2.5"/>
<circle opacity="0.5" fill="#CDDED8" enable-background="new    " cx="147.2" cy="520.5" r="2.5"/>
<circle opacity="0.5" fill="#CDDED8" enable-background="new    " cx="356.2" cy="117.5" r="2.5"/>
<circle opacity="0.5" fill="#CDDED8" enable-background="new    " cx="221.2" cy="77.5" r="2.5"/>
<circle opacity="0.5" fill="#D8EAED" enable-background="new    " cx="354.2" cy="426.9" r="2.5"/>
<circle opacity="0.5" fill="#D8EAED" enable-background="new    " cx="300.2" cy="517.9" r="2.5"/>
<linearGradient id="SVGID_5_" gradientUnits="userSpaceOnUse" x1="769.4406" y1="184.74" x2="769.4406" y2="232.31" gradientTransform="matrix(0.461 -0.8874 -0.8874 -0.461 120.6667 1144.3883)">
	<stop  offset="0" style="stop-color:#808080;stop-opacity:0.25"/>
	<stop  offset="0.54" style="stop-color:#808080;stop-opacity:0.12"/>
	<stop  offset="1" style="stop-color:#808080;stop-opacity:0.1"/>
</linearGradient>
<path fill="url(#SVGID_5_)" d="M295.9,349c-1.4-0.7-3.2-0.2-3.9,1.2l-0.3,0.6l-0.7-0.4l-6.1-3.2l-1.3-0.7c-0.2-0.1-0.4-0.1-0.6-0.1
	c-5.9-1.9-10.6,1.8-13.6,7.6l0,0c-1.1,2-1.8,4.2-2.1,6.4l-0.1,0c-0.3,2.4,0,4.7,1.2,6.6l0.1-0.2c0.6,1,1.3,1.8,2.2,2.5
	c0.1,0.3,0.2,0.5,0.5,0.6l8.4,4.3l-0.6,1.2c-0.7,1.4-0.2,3.2,1.2,3.9l0,0l2-3.8l10.3,5.4l0.7-1.3l0.7-1.3l1-1.9h0l-2.3,4.5l4.9,2.6
	c6,3.1,10.6-0.9,13.9-7.1v0l0.2-0.4l0,0l0,0v0l0,0l0,0l0.2-0.3l0,0c3.2-6.3,3.8-12.4-2.2-15.5l-4.9-2.5l-2.7,5.2h0l1.4-2.7l0.6-1.2
	l0.7-1.4l-10.3-5.4L295.9,349L295.9,349z M280.2,371.4L280.2,371.4L280.2,371.4L280.2,371.4z"/>
<rect x="282.1" y="361.1" transform="matrix(0.461 -0.8874 0.8874 0.461 -167.3212 457.7547)" fill="#4F617D" width="22" height="11"/>
<path fill="#FF656A" d="M310.3,375.5L310.3,375.5c-3.2,6-7.5,10.1-13.3,7.1l-4.7-2.4l11.4-22l4.7,2.4
	C314.2,363.5,313.5,369.4,310.3,375.5z"/>
<path fill="#4A5C81" d="M306.7,380.6c1.4-1.5,2.7-3.3,3.6-5.2c0.9-1.6,1.5-3.3,2-5.1l-2-1l-5.4,10.4L306.7,380.6z"/>
<path fill="#4A5C81" d="M294.5,375.9l6.7-12.8l0,0l0.4,0.2c0.8,0.4,1.1,1.4,0.7,2.2l0,0l-5.1,9.9c-0.4,0.8-1.4,1.1-2.2,0.7l0,0
	L294.5,375.9L294.5,375.9z"/>
<path fill="#FF6469" d="M272.6,367.4l0.2-0.5l0,0l20.8,10.8l0,0l-1.3,2.4l0,0l-18.8-9.8C272.4,369.8,272,368.5,272.6,367.4
	C272.6,367.4,272.6,367.4,272.6,367.4z"/>
<path fill="#FF6469" d="M281.7,349.7l0.2-0.5c0.6-1.1,1.9-1.5,3-0.9l0,0l18.8,9.8l0,0l-1.3,2.4l0,0L281.7,349.7L281.7,349.7z"/>
<path fill="#FF656A" d="M291,351.4l-11.4,22l-5.8-3c-6.4-3.3-6.3-9.5-3.2-15.6l0,0c3.2-6.1,8.2-9.7,14.6-6.4L291,351.4z"/>
<path fill="#FFF6D5" d="M269.7,367l2.3-4.4l-3.4-1.8C268.3,363.1,268.6,365.2,269.7,367z"/>
<path fill="#FFF6D5" d="M279.9,347.2l-2.3,4.4l-3.4-1.8C275.9,348.3,277.8,347.3,279.9,347.2z"/>
<path fill="#FF6469" d="M279.3,375.5l0.9-1.7l0,0l2.4,1.3l0,0l-1.9,3.7l0,0l-0.5-0.2C279.2,377.9,278.8,376.6,279.3,375.5
	C279.3,375.5,279.3,375.5,279.3,375.5z"/>
<path fill="#FF6469" d="M295.6,350l-1.9,3.7l0,0l-2.4-1.3l0,0l0.9-1.7c0.6-1.1,1.9-1.5,3-0.9l0,0L295.6,350L295.6,350z"/>
<path fill="#53678B" d="M292.4,354.5l-9.6,18.4l-8.3-7.4c-1.3-1.2-1.7-3.1-0.9-4.7l3.6-6.8c0.8-1.6,2.6-2.4,4.4-2L292.4,354.5z"/>
<path fill="#658BC8" d="M283.3,372.2c-4.1-2.1-5.4-7.5-3-12.1c2.4-4.6,7.6-6.5,11.6-4.4"/>
<polygon fill="#FF656A" points="293.1,354.9 283.6,373.2 281.7,372.3 283,371.3 290.9,356.2 291.3,353.9 "/>
<polygon opacity="5.000000e-02" enable-background="new    " points="293.1,354.9 283.6,373.2 281.7,372.3 283,371.3 290.9,356.2 
	291.3,353.9 "/>
<rect x="287.5" y="364.5" transform="matrix(0.461 -0.8874 0.8874 0.461 -168.9944 453.6055)" fill="#53678B" width="2.8" height="2.8"/>
<ellipse transform="matrix(0.461 -0.8874 0.8874 0.461 -168.8936 455.0354)" fill="#53678B" cx="290.1" cy="366.5" rx="2.8" ry="0.7"/>
<path opacity="5.000000e-02" enable-background="new    " d="M296.8,379.3c2.2,1.5,5.1,0.9,6.6-1.2c0.1-0.1,0.1-0.2,0.2-0.3"/>
<path opacity="5.000000e-02" enable-background="new    " d="M305.4,362.8c2.4,0.9,3.7,3.6,2.7,6.1c0,0.1-0.1,0.2-0.1,0.3"/>
<path opacity="5.000000e-02" enable-background="new    " d="M275.7,362.9c0,0-0.5-4.9,4.4-8.6"/>
<path opacity="5.000000e-02" enable-background="new    " d="M278,364.1c0,0-0.5-4.9,4.4-8.6"/>
<ellipse transform="matrix(0.461 -0.8874 0.8874 0.461 -172.2255 448.0915)" fill="#4A77BE" cx="282.7" cy="365.8" rx="2.1" ry="2.1"/>
<ellipse transform="matrix(0.461 -0.8874 0.8874 0.461 -164.429 446.8548)" fill="#4A77BE" cx="285.6" cy="358.8" rx="1.4" ry="1.4"/>
<path fill="#CDEFFF" d="M290.1,363.9l-0.1-0.4c-0.1-0.4,0.2-0.9,0.6-1l4.4-0.9c0.5-0.1,0.9,0.2,1,0.7c0,0,0,0,0,0l0.2,1.2l0,0
	l-5.3,1.1C290.6,364.6,290.2,364.3,290.1,363.9z"/>
<path opacity="5.000000e-02" enable-background="new    " d="M292.7,364.6l-0.4-2l0,0l2.4-0.5c0.9-0.2,1.8,0.4,2,1.3l0,0l0.1,0.4
	l0,0L292.7,364.6L292.7,364.6z"/>
<path fill="#CDEFFF" d="M289,373.3l1.7-3.2l0,0l3.8,2l0,0l-1.7,3.2c-0.4,0.8-1.5,1.2-2.3,0.7l0,0l-0.7-0.4
	C288.9,375.1,288.5,374.1,289,373.3C289,373.3,289,373.3,289,373.3z"/>
<path fill="#CDEFFF" d="M292.9,374.8l-0.7,1.5c-0.7,1.2-2.6,1.6-4.1,0.8l-1.8-0.9l1-1.9L292.9,374.8z"/>
<path fill="#CDEFFF" d="M282.9,373.5l0.2-0.4c0.2-0.4,0.7-0.6,1.2-0.4l3,1.6l0,0l-1,1.9l0,0l-3-1.6
	C282.8,374.4,282.7,373.9,282.9,373.5z"/>
<path opacity="5.000000e-02" enable-background="new    " d="M292.2,372.1c0.6,0.3,1.3,0.4,2,0.3l0.1-0.2l-3.7-1.9
	C290.9,371,291.5,371.7,292.2,372.1z"/>
<path fill="#CDEFFF" d="M298.1,364.9l-1.7,3.2l0,0l-3.8-2l0,0l1.7-3.2c0.4-0.8,1.5-1.2,2.3-0.7l0,0l0.7,0.4
	C298.2,363,298.5,364,298.1,364.9L298.1,364.9L298.1,364.9z"/>
<path opacity="5.000000e-02" enable-background="new    " d="M295.2,366.3c0.6,0.3,1.1,0.8,1.4,1.5l-0.1,0.2l-3.7-1.9
	C293.7,365.8,294.5,365.9,295.2,366.3z"/>
<ellipse transform="matrix(0.461 -0.8874 0.8874 0.461 -169.1858 459.6082)" fill="#CDEFFF" cx="293.7" cy="369.1" rx="3.2" ry="3.2"/>
<ellipse transform="matrix(0.461 -0.8874 0.8874 0.461 -169.3137 459.4927)" fill="#CDEFFF" cx="293.6" cy="369.1" rx="3.2" ry="3.2"/>
<path fill="#658BC8" d="M290.7,367.6c-0.5,1-0.5,2.2,0.1,3.2c1.8-0.1,3.1-1.6,3-3.3c0-0.6-0.2-1.1-0.5-1.6
	C292.3,366,291.3,366.6,290.7,367.6z"/>
<g opacity="0.5">
	
		<rect x="490" y="461.9" transform="matrix(1.260878e-02 -0.9999 0.9999 1.260878e-02 19.0472 950.1385)" fill="#CDDED8" width="1.2" height="7"/>
	
		<rect x="487.1" y="464.8" transform="matrix(1.260878e-02 -0.9999 0.9999 1.260878e-02 19.0434 950.1385)" fill="#CDDED8" width="7" height="1.2"/>
</g>
<g opacity="0.5">
	
		<rect x="487.7" y="329.9" transform="matrix(1.260878e-02 -0.9999 0.9999 1.260878e-02 148.7708 817.4283)" fill="#CDDED8" width="1.2" height="7"/>
	
		<rect x="484.8" y="332.8" transform="matrix(1.260878e-02 -0.9999 0.9999 1.260878e-02 148.767 817.4283)" fill="#CDDED8" width="7" height="1.2"/>
</g>
<path opacity="0.5" fill="#D9DFE8" enable-background="new    " d="M459.9,398.6c0.3-0.7,1.1-1.1,1.8-0.8c0.1,0,0.1,0,0.2,0l0,0
	c0.4,0,0.8-0.3,0.8-0.7c0-0.2-0.1-0.5-0.3-0.6l0,0c0,0-0.1-0.1-0.1-0.1c-0.7-0.3-1.1-1.1-0.8-1.8c0-0.1,0-0.1,0-0.2l0,0
	c0-0.4-0.3-0.8-0.7-0.8c-0.2,0-0.5,0.1-0.6,0.3l0,0c0,0-0.1,0.1-0.1,0.1c-0.3,0.7-1.1,1.1-1.8,0.8c-0.1,0-0.1,0-0.2,0l0,0
	c-0.4,0-0.8,0.3-0.8,0.7c0,0.2,0.1,0.5,0.3,0.6l0,0c0,0,0.1,0.1,0.1,0.1c0.7,0.3,1.1,1.1,0.8,1.8c0,0.1,0,0.1,0,0.2l0,0
	c0,0.4,0.3,0.8,0.7,0.8c0.2,0,0.5-0.1,0.6-0.3l0,0C459.8,398.7,459.9,398.7,459.9,398.6z"/>
<ellipse transform="matrix(1.260878e-02 -0.9999 0.9999 1.260878e-02 -58.6928 1023.3708)" opacity="0.5" fill="#CDDED8" enable-background="new    " cx="488.8" cy="541.4" rx="2.5" ry="2.5"/>
<ellipse transform="matrix(1.260878e-02 -0.9999 0.9999 1.260878e-02 116.9546 932.2773)" opacity="0.5" fill="#CDDED8" enable-background="new    " cx="530.5" cy="406.9" rx="2.5" ry="2.5"/>
<g opacity="0.5">
	
		<rect x="498.1" y="142" transform="matrix(1.260878e-02 -0.9999 0.9999 1.260878e-02 346.9425 642.3212)" fill="#CDDED8" width="1.2" height="7"/>
	
		<rect x="495.2" y="144.9" transform="matrix(1.260878e-02 -0.9999 0.9999 1.260878e-02 346.9463 642.3212)" fill="#CDDED8" width="7" height="1.2"/>
</g>
<g opacity="0.5">
	
		<rect x="500.4" y="274" transform="matrix(1.260878e-02 -0.9999 0.9999 1.260878e-02 217.2189 775.0314)" fill="#CDDED8" width="1.2" height="7"/>
	
		<rect x="497.5" y="276.9" transform="matrix(1.260878e-02 -0.9999 0.9999 1.260878e-02 217.2227 775.0315)" fill="#CDDED8" width="7" height="1.2"/>
</g>
<path opacity="0.5" fill="#D9DFE8" enable-background="new    " d="M529.4,212.3c-0.3,0.7-1.1,1.1-1.8,0.8c-0.1,0-0.1,0-0.2,0l0,0
	c-0.4,0-0.8,0.3-0.8,0.7c0,0.2,0.1,0.5,0.3,0.6l0,0c0,0,0.1,0.1,0.1,0.1c0.7,0.3,1.1,1.1,0.8,1.8c0,0.1,0,0.1,0,0.2l0,0
	c0,0.4,0.3,0.8,0.7,0.8c0.2,0,0.5-0.1,0.6-0.3l0,0c0,0,0.1-0.1,0.1-0.1c0.3-0.7,1.1-1.1,1.8-0.8c0.1,0,0.1,0,0.2,0l0,0
	c0.4,0,0.8-0.3,0.8-0.7c0-0.2-0.1-0.5-0.3-0.6l0,0c0,0-0.1-0.1-0.1-0.1c-0.7-0.3-1.1-1.1-0.8-1.8c0-0.1,0-0.1,0-0.2l0,0
	c0-0.4-0.3-0.8-0.7-0.8c-0.2,0-0.5,0.1-0.6,0.3l0,0C529.5,212.2,529.5,212.3,529.4,212.3z"/>
<ellipse transform="matrix(1.260878e-02 -0.9999 0.9999 1.260878e-02 424.6826 569.0889)" opacity="0.5" fill="#CDDED8" enable-background="new    " cx="500.5" cy="69.5" rx="2.5" ry="2.5"/>
<ellipse transform="matrix(1.260878e-02 -0.9999 0.9999 1.260878e-02 249.0351 660.1825)" opacity="0.5" fill="#CDDED8" enable-background="new    " cx="458.8" cy="204" rx="2.5" ry="2.5"/>
<g opacity="0.5">
	
		<rect x="69.1" y="150" transform="matrix(1.260878e-02 -0.9999 0.9999 1.260878e-02 -84.6477 221.2544)" fill="#CDDED8" width="1.2" height="7"/>
	
		<rect x="66.2" y="152.9" transform="matrix(1.260878e-02 -0.9999 0.9999 1.260878e-02 -84.6439 221.2545)" fill="#CDDED8" width="7" height="1.2"/>
</g>
<g opacity="0.5">
	
		<rect x="71.4" y="282" transform="matrix(1.260878e-02 -0.9999 0.9999 1.260878e-02 -214.3713 353.9646)" fill="#CDDED8" width="1.2" height="7"/>
	
		<rect x="68.5" y="284.9" transform="matrix(1.260878e-02 -0.9999 0.9999 1.260878e-02 -214.3674 353.9647)" fill="#CDDED8" width="7" height="1.2"/>
</g>
<path opacity="0.5" fill="#D9DFE8" enable-background="new    " d="M100.4,220.3c-0.3,0.7-1.1,1.1-1.8,0.8c-0.1,0-0.1,0-0.2,0l0,0
	c-0.4,0-0.8,0.3-0.8,0.7c0,0.2,0.1,0.5,0.3,0.6l0,0c0,0,0.1,0.1,0.1,0.1c0.7,0.3,1.1,1.1,0.8,1.8c0,0.1,0,0.1,0,0.2l0,0
	c0,0.4,0.3,0.8,0.7,0.8c0.2,0,0.5-0.1,0.6-0.3l0,0c0,0,0.1-0.1,0.1-0.1c0.3-0.7,1.1-1.1,1.8-0.8c0.1,0,0.1,0,0.2,0l0,0
	c0.4,0,0.8-0.3,0.8-0.7c0-0.2-0.1-0.5-0.3-0.6l0,0c0,0-0.1-0.1-0.1-0.1c-0.7-0.3-1.1-1.1-0.8-1.8c0-0.1,0-0.1,0-0.2l0,0
	c0-0.4-0.3-0.8-0.7-0.8c-0.2,0-0.5,0.1-0.6,0.3l0,0C100.5,220.2,100.5,220.3,100.4,220.3z"/>
<ellipse transform="matrix(1.260878e-02 -0.9999 0.9999 1.260878e-02 -6.9076 148.0222)" opacity="0.5" fill="#CDDED8" enable-background="new    " cx="71.5" cy="77.5" rx="2.5" ry="2.5"/>
<ellipse transform="matrix(1.260878e-02 -0.9999 0.9999 1.260878e-02 -182.5551 239.1157)" opacity="0.5" fill="#CDDED8" enable-background="new    " cx="29.8" cy="212" rx="2.5" ry="2.5"/>
<g opacity="0.5">
	
		<rect x="64.1" y="415" transform="matrix(1.260878e-02 -0.9999 0.9999 1.260878e-02 -354.5636 477.9135)" fill="#CDDED8" width="1.2" height="7"/>
	
		<rect x="61.2" y="417.9" transform="matrix(1.260878e-02 -0.9999 0.9999 1.260878e-02 -354.5598 477.9135)" fill="#CDDED8" width="7" height="1.2"/>
</g>
<g opacity="0.5">
	
		<rect x="66.4" y="547" transform="matrix(1.260878e-02 -0.9999 0.9999 1.260878e-02 -484.2872 610.6237)" fill="#CDDED8" width="1.2" height="7"/>
	
		<rect x="63.5" y="549.9" transform="matrix(1.260878e-02 -0.9999 0.9999 1.260878e-02 -484.2833 610.6238)" fill="#CDDED8" width="7" height="1.2"/>
</g>
<path opacity="0.5" fill="#D9DFE8" enable-background="new    " d="M95.4,485.3c-0.3,0.7-1.1,1.1-1.8,0.8c-0.1,0-0.1,0-0.2,0l0,0
	c-0.4,0-0.8,0.3-0.8,0.7c0,0.2,0.1,0.5,0.3,0.6l0,0c0,0,0.1,0.1,0.1,0.1c0.7,0.3,1.1,1.1,0.8,1.8c0,0.1,0,0.1,0,0.2l0,0
	c0,0.4,0.3,0.8,0.7,0.8c0.2,0,0.5-0.1,0.6-0.3l0,0c0,0,0.1-0.1,0.1-0.1c0.3-0.7,1.1-1.1,1.8-0.8c0.1,0,0.1,0,0.2,0l0,0
	c0.4,0,0.8-0.3,0.8-0.7c0-0.2-0.1-0.5-0.3-0.6l0,0c0,0-0.1-0.1-0.1-0.1c-0.7-0.3-1.1-1.1-0.8-1.8c0-0.1,0-0.1,0-0.2l0,0
	c0-0.4-0.3-0.8-0.7-0.8c-0.2,0-0.5,0.1-0.6,0.3l0,0C95.5,485.2,95.5,485.3,95.4,485.3z"/>
<ellipse transform="matrix(1.260878e-02 -0.9999 0.9999 1.260878e-02 -276.8235 404.6812)" opacity="0.5" fill="#CDDED8" enable-background="new    " cx="66.5" cy="342.5" rx="2.5" ry="2.5"/>
<ellipse transform="matrix(1.260878e-02 -0.9999 0.9999 1.260878e-02 -452.471 495.7748)" opacity="0.5" fill="#CDDED8" enable-background="new    " cx="24.8" cy="477" rx="2.5" ry="2.5"/>
</svg>
