<?xml version="1.0" encoding="utf-8"?>
<!-- Generator: Adobe Illustrator 21.1.0, SVG Export Plug-In . SVG Version: 6.00 Build 0)  -->
<svg version="1.1" id="Capa_1" xmlns="http://www.w3.org/2000/svg" xmlns:xlink="http://www.w3.org/1999/xlink" x="0px" y="0px"
	 viewBox="0 0 553 600" style="enable-background:new 0 0 553 600;" xml:space="preserve">
<style type="text/css">
	.st0{opacity:0.25;fill:#535461;enable-background:new    ;}
	.st1{fill:#B1F8D5;}
	.st2{fill:#A0E4C6;}
	.st3{fill:#DCFAEC;}
	.st4{fill:#7EBBA7;}
	.st5{fill:#83D6AA;}
	.st6{fill:#FFFFFF;}
</style>
<circle class="st0" cx="35.6" cy="108.3" r="3.3"/>
<polygon class="st0" points="439.4,354.1 436.5,354.1 436.5,351.2 435.3,351.2 435.3,354.1 432.4,354.1 432.4,355.3 435.3,355.3 
	435.3,358.2 436.5,358.2 436.5,355.3 439.4,355.3 "/>
<polygon class="st0" points="64,19.6 61.1,19.6 61.1,16.7 60,16.7 60,19.6 57,19.6 57,20.7 60,20.7 60,23.6 61.1,23.6 61.1,20.7 
	64,20.7 "/>
<g>
	<path id="ee614fe0-a70d-49e2-ad0f-cfa0665daf52_1_" class="st1" d="M249.9,107.5h-1c-0.2,0-0.7-0.8-0.7-1v-0.9
		c0-0.7-0.8-2.6-1.5-2.6s-1.5,1.9-1.5,2.6v0.9c0,0.3-0.2,1-0.5,1h-1c-0.7,0-2.6,0.5-2.6,1.2s1.9,1.2,2.6,1.2h1.1
		c0.4,0,0.4,0.4,0.4,0.6v1.2c0,0.7,0.8,2.6,1.5,2.6s1.5-1.9,1.5-2.6v-1.2c0-0.2,0.3-0.6,0.5-0.6h1.2c0.7,0,2.6-0.5,2.6-1.2
		S250.6,107.5,249.9,107.5z"/>
	<path id="acc1d592-062e-4dcd-a91f-f2c750c33fa0_1_" class="st1" d="M52.9,160.4H52c-0.2,0-0.6-0.7-0.6-0.9v-0.8
		c0-0.6-0.7-2.3-1.3-2.3s-1.3,1.7-1.3,2.3v0.8c0,0.3-0.2,0.9-0.5,0.9h-0.8c-0.6,0-2.3,0.5-2.3,1.1s1.7,1.1,2.3,1.1h1
		c0.3,0,0.3,0.3,0.3,0.5v1.1c0,0.6,0.7,2.3,1.3,2.3s1.3-1.7,1.3-2.3v-1.1c0-0.1,0.3-0.5,0.4-0.5h1c0.6,0,2.3-0.5,2.3-1.1
		S53.5,160.4,52.9,160.4z"/>
	<path id="e9c2f9d0-6216-43dd-aafe-1aef442d8198_2_" class="st2" d="M406.4,432.7h-0.9c-0.2,0-0.7-0.7-0.7-0.9V431
		c0-0.6-0.8-2.3-1.4-2.3s-1.4,1.7-1.4,2.3v0.8c0,0.3,0,0.9-0.3,0.9h-0.9c-0.6,0-2.3,0.4-2.3,1s1.7,1,2.3,1h1c0.3,0,0.1,0.5,0.1,0.6
		v1.1c0,0.6,0.8,2.3,1.4,2.3s1.4-1.7,1.4-2.3v-1.1c0-0.1,0.4-0.6,0.5-0.6h1c0.6,0,2.3-0.4,2.3-1C408.8,433.2,407,432.7,406.4,432.7z
		"/>
	<path id="_x31_3867d9c-cfe7-4b60-a8c5-3f71e99c3e02_1_" class="st2" d="M89.1,488.1h-0.9c-0.2,0-0.7-0.7-0.7-0.9v-0.8
		c0-0.6-0.8-2.3-1.4-2.3s-1.4,1.7-1.4,2.3v0.8c0,0.3,0,0.9-0.3,0.9h-0.9c-0.6,0-2.3,0.4-2.3,1s1.7,1,2.3,1h1c0.3,0,0.1,0.5,0.1,0.6
		v1.1c0,0.6,0.8,2.3,1.4,2.3s1.4-1.7,1.4-2.3v-1.1c0-0.1,0.4-0.6,0.5-0.6h1c0.6,0,2.3-0.4,2.3-1C91.5,488.6,89.8,488.1,89.1,488.1z"
		/>
	<circle id="cb349740-a417-4f38-a613-4379a7fe1f38_1_" class="st3" cx="438.6" cy="25.7" r="5.2"/>
	<circle id="be23bb10-1d2e-418b-af6d-2d6967ae971b_1_" class="st4" cx="81.5" cy="231.1" r="2.4"/>
	<circle id="_x39_efc09db-f667-434b-9915-b8177f90eb0b_3_" class="st5" cx="289.4" cy="145" r="1.7"/>
	<circle id="_x39_efc09db-f667-434b-9915-b8177f90eb0b_2_" class="st5" cx="104.3" cy="89.8" r="1.7"/>
	<circle id="_x31_b095ea7-cb8e-44fa-8db9-d77434a32042_1_" class="st3" cx="388.2" cy="184.6" r="4.9"/>
	<circle id="_x30_045b9d1-e494-49ec-9bae-4feb39b517d1_1_" class="st3" cx="334.1" cy="28" r="2.4"/>
	<circle id="de43a1f8-3987-4c14-8b8b-500a4e27f972_3_" class="st6" cx="272.9" cy="189.7" r="2.4"/>
	<circle id="de43a1f8-3987-4c14-8b8b-500a4e27f972_2_" class="st6" cx="199.5" cy="14.2" r="2.4"/>
	<circle id="b38b0c10-cbab-47c9-839f-7ab983c113e8_1_" class="st6" cx="119.9" cy="176" r="4.5"/>
	<circle id="e67cfae9-b598-4bd2-a0f9-80d7ff6e0a16_1_" class="st4" cx="182.2" cy="111" r="2.6"/>
	<circle id="_x31_d77e6b8-da9e-4299-ade6-ad650e1207bd_1_" class="st5" cx="197.5" cy="216.6" r="1.7"/>
	<circle id="_x31_e33811a-9f5a-4f3e-be99-0f7e1dde7905_1_" class="st4" cx="199.4" cy="166.7" r="2.6"/>
	<path id="c488d0a9-6894-4c9c-aef4-d1faab1984cf_3_" class="st1" d="M341.9,107.6H341c-0.2,0-0.6-0.7-0.6-0.9v-0.8
		c0-0.6-0.7-2.4-1.4-2.4s-1.4,1.7-1.4,2.4v0.8c0,0.3-0.2,0.9-0.5,0.9h-0.9c-0.6,0-2.4,0.5-2.4,1.1s1.7,1.1,2.4,1.1h1
		c0.3,0,0.3,0.3,0.3,0.5v1.1c0,0.6,0.7,2.4,1.4,2.4s1.4-1.7,1.4-2.4v-1.1c0-0.1,0.3-0.5,0.5-0.5h1.1c0.6,0,2.4-0.5,2.4-1.1
		S342.6,107.6,341.9,107.6z"/>
	<path id="c488d0a9-6894-4c9c-aef4-d1faab1984cf_2_" class="st1" d="M32,270.3h-0.9c-0.2,0-0.6-0.7-0.6-0.9v-0.8
		c0-0.6-0.7-2.4-1.4-2.4c-0.6,0-1.4,1.7-1.4,2.4v0.8c0,0.3-0.2,0.9-0.5,0.9h-0.9c-0.6,0-2.4,0.5-2.4,1.1s1.7,1.1,2.4,1.1h1
		c0.3,0,0.3,0.3,0.3,0.5v1.1c0,0.6,0.7,2.4,1.4,2.4c0.6,0,1.4-1.7,1.4-2.4V273c0-0.1,0.3-0.5,0.5-0.5H32c0.6,0,2.4-0.5,2.4-1.1
		S32.7,270.3,32,270.3z"/>
	<circle id="_x37_be5003c-4472-46d4-8fd5-cb0f750e9b8b_3_" class="st4" cx="502.8" cy="174.7" r="2.4"/>
	<circle id="_x37_be5003c-4472-46d4-8fd5-cb0f750e9b8b_2_" class="st4" cx="313.1" cy="87.1" r="2.4"/>
	<circle id="_x37_efbb3a7-f30e-4781-a185-7b9acf369ac6_1_" class="st4" cx="405.7" cy="99.9" r="2.4"/>
	<circle id="e77aff23-9dcb-4e42-8690-c4669d7d47b5_1_" class="st3" cx="500.4" cy="81.9" r="4.9"/>
	<circle id="f898004f-292d-4a15-988f-9ba9c1bfd06e_1_" class="st3" cx="448.6" cy="136.6" r="4.5"/>
</g>
</svg>
