<?xml version="1.0" encoding="utf-8"?>
<!-- Generator: Adobe Illustrator 21.1.0, SVG Export Plug-In . SVG Version: 6.00 Build 0)  -->
<svg version="1.0" id="Capa_1" xmlns="http://www.w3.org/2000/svg" xmlns:xlink="http://www.w3.org/1999/xlink" x="0px" y="0px"
	 viewBox="0 0 554 600" enable-background="new 0 0 554 600" xml:space="preserve">
<polygon fill="none" stroke="#535461" stroke-miterlimit="10" points="194.6,481.4 176.4,481.4 179.7,459.3 191.4,459.3 "/>
<g opacity="0.1">
	<polygon points="178.7,468 192.3,468 191.4,461.9 179.7,461.9 	"/>
</g>
<polygon fill="none" stroke="#535461" stroke-miterlimit="10" points="350.8,481.4 332.6,481.4 335.8,459.3 347.5,459.3 "/>
<g opacity="0.1">
	<polygon points="334.9,468 348.4,468 347.5,461.9 335.8,461.9 	"/>
</g>
<polygon fill="none" stroke="#535461" stroke-miterlimit="10" points="253.8,481.4 235.6,481.4 238.9,459.3 250.6,459.3 "/>
<g opacity="0.1">
	<polygon points="238,468 251.5,468 250.6,461.9 238.9,461.9 	"/>
</g>
<polygon fill="none" stroke="#535461" stroke-miterlimit="10" points="290.9,481.4 272.7,481.4 276,459.3 287.7,459.3 "/>
<g opacity="0.1">
	<polygon points="275.1,468 288.6,468 287.7,461.9 276,461.9 	"/>
</g>
<rect x="214.1" y="277.3" fill="none" stroke="#535461" stroke-miterlimit="10" width="95.6" height="4.3"/>
<path fill="none" stroke="#E0E0E0" stroke-miterlimit="10" d="M344.9,194.2c-2.7-3-7.4-3.2-10.4-0.5c-0.2,0.2-0.3,0.3-0.5,0.5
	c-3.8,4-7.2,9.4-10.2,15.1c-8.9,17.1-13.4,36-13.4,55.3v200.3H368V263.7c0.1-18.7-4.3-37.2-12.7-53.9
	C351.3,202,347.7,197.1,344.9,194.2z"/>
<path fill="none" stroke="#E0E0E0" stroke-miterlimit="10" d="M179.7,194.2c2.7-3,7.4-3.2,10.4-0.5c0.2,0.2,0.3,0.3,0.5,0.5
	c3.8,4,7.2,9.4,10.2,15.1c8.9,17.1,13.4,36,13.4,55.3v200.3h-57.6V263.7c-0.1-18.7,4.3-37.2,12.7-53.9
	C173.3,202,176.9,197.1,179.7,194.2z"/>
<polygon fill="none" stroke="#535461" stroke-miterlimit="10" points="156.9,267.9 170.5,268 170.5,284.9 156.9,284.9 "/>
<polygon fill="none" stroke="#535461" stroke-miterlimit="10" points="200.5,267.9 214.1,268 214.1,284.9 200.5,284.9 "/>
<polygon fill="none" stroke="#535461" stroke-miterlimit="10" points="310.4,267.9 324.1,268 324.1,284.9 310.4,284.9 "/>
<polygon fill="none" stroke="#535461" stroke-miterlimit="10" points="354,267.9 367.7,268 367.7,284.9 354,284.9 "/>
<g opacity="0.1">
	<path d="M200.8,209c-3-5.7-6.4-11-10.2-15.1c-2.2-2.4-5.8-3.1-8.7-1.6c0.8,0.4,1.6,1,2.2,1.6c3.8,4,7.2,9.4,10.2,15.1
		c8.9,17.1,13.4,36,13.4,55.3v200.3h6.5V264.3C214.2,245,209.7,226,200.8,209z"/>
</g>
<g opacity="0.1">
	<path d="M329,209.5c3-5.7,6.4-11,10.2-15.1c0.7-0.8,1.6-1.4,2.5-1.8c-2.9-1.3-6.3-0.5-8.4,1.8c-3.8,4-7.2,9.4-10.2,15.1
		c-8.9,17.1-13.4,36-13.4,55.3v200.3h5.9V264.8C315.6,245.6,320.1,226.6,329,209.5z"/>
</g>
<linearGradient id="SVGID_1_" gradientUnits="userSpaceOnUse" x1="185.5" y1="119.1" x2="185.5" y2="68.6" gradientTransform="matrix(1 0 0 -1 0 600)">
	<stop  offset="0" style="stop-color:#E0E0E0"/>
	<stop  offset="0.31" style="stop-color:#FCCC63"/>
	<stop  offset="0.77" style="stop-color:#F55F44"/>
</linearGradient>
<rect x="176.4" y="481.4" fill="none" stroke="url(#SVGID_1_)" stroke-miterlimit="10" width="18.2" height="49.5"/>
<linearGradient id="SVGID_2_" gradientUnits="userSpaceOnUse" x1="244.7" y1="119.1" x2="244.7" y2="68.6" gradientTransform="matrix(1 0 0 -1 0 600)">
	<stop  offset="0" style="stop-color:#E0E0E0"/>
	<stop  offset="0.31" style="stop-color:#FCCC63"/>
	<stop  offset="0.77" style="stop-color:#F55F44"/>
</linearGradient>
<rect x="235.6" y="481.4" fill="none" stroke="url(#SVGID_2_)" stroke-miterlimit="10" width="18.2" height="49.5"/>
<linearGradient id="SVGID_3_" gradientUnits="userSpaceOnUse" x1="281.8" y1="119.1" x2="281.8" y2="68.6" gradientTransform="matrix(1 0 0 -1 0 600)">
	<stop  offset="0" style="stop-color:#E0E0E0"/>
	<stop  offset="0.31" style="stop-color:#FCCC63"/>
	<stop  offset="0.77" style="stop-color:#F55F44"/>
</linearGradient>
<rect x="272.7" y="481.4" fill="none" stroke="url(#SVGID_3_)" stroke-miterlimit="10" width="18.2" height="49.5"/>
<linearGradient id="SVGID_4_" gradientUnits="userSpaceOnUse" x1="341.7" y1="119.1" x2="341.7" y2="68.6" gradientTransform="matrix(1 0 0 -1 0 600)">
	<stop  offset="0" style="stop-color:#E0E0E0"/>
	<stop  offset="0.31" style="stop-color:#FCCC63"/>
	<stop  offset="0.77" style="stop-color:#F55F44"/>
</linearGradient>
<rect x="332.6" y="481.4" fill="none" stroke="url(#SVGID_4_)" stroke-miterlimit="10" width="18.2" height="49.5"/>
<path fill="none" stroke="#EEEEEE" stroke-miterlimit="10" d="M269.5,37.1c-3.6-4.3-10-4.8-14.3-1.2c-0.4,0.4-0.9,0.8-1.2,1.2
	c-5.4,6-10.3,14-14.6,22.6c-12.6,25.2-19.1,53.9-19.1,82.9V464h82.2V141.2c0-28.2-6.1-56.1-18.2-80.7
	C278.7,48.8,273.5,41.6,269.5,37.1z"/>
<path opacity="0.1" enable-background="new    " d="M248.2,72.8h25.5c4.8,0,8.7,3.9,8.7,8.7v2.3c0,4.8-3.9,8.7-8.7,8.7h-25.5
	c-4.8,0-8.7-3.9-8.7-8.7v-2.3C239.5,76.7,243.4,72.8,248.2,72.8z"/>
<linearGradient id="SVGID_5_" gradientUnits="userSpaceOnUse" x1="127.7" y1="143.3" x2="127.7" y2="27.3" gradientTransform="matrix(1 0 0 -1 0 600)">
	<stop  offset="0" style="stop-color:#F2F2F2"/>
	<stop  offset="0.31" style="stop-color:#E6E6E6"/>
	<stop  offset="0.77" style="stop-color:#CCCCCC"/>
</linearGradient>
<circle fill="none" stroke="url(#SVGID_5_)" stroke-miterlimit="10" cx="127.7" cy="514.7" r="57.5"/>
<linearGradient id="SVGID_6_" gradientUnits="userSpaceOnUse" x1="127.4" y1="127.3" x2="127.4" y2="0.3" gradientTransform="matrix(1 0 0 -1 0 600)">
	<stop  offset="0" style="stop-color:#F2F2F2"/>
	<stop  offset="0.31" style="stop-color:#E6E6E6"/>
	<stop  offset="0.77" style="stop-color:#CCCCCC"/>
</linearGradient>
<circle fill="none" stroke="url(#SVGID_6_)" stroke-miterlimit="10" cx="127.4" cy="536.2" r="63"/>
<linearGradient id="SVGID_7_" gradientUnits="userSpaceOnUse" x1="383.4" y1="127.3" x2="383.4" y2="0.3" gradientTransform="matrix(1 0 0 -1 0 600)">
	<stop  offset="0" style="stop-color:#F2F2F2"/>
	<stop  offset="0.31" style="stop-color:#E6E6E6"/>
	<stop  offset="0.77" style="stop-color:#CCCCCC"/>
</linearGradient>
<circle fill="none" stroke="url(#SVGID_7_)" stroke-miterlimit="10" cx="383.4" cy="536.2" r="63"/>
<linearGradient id="SVGID_8_" gradientUnits="userSpaceOnUse" x1="380.2" y1="116.3" x2="380.2" y2="0.3" gradientTransform="matrix(1 0 0 -1 0 600)">
	<stop  offset="0" style="stop-color:#F2F2F2"/>
	<stop  offset="0.31" style="stop-color:#E6E6E6"/>
	<stop  offset="0.77" style="stop-color:#CCCCCC"/>
</linearGradient>
<circle fill="none" stroke="url(#SVGID_8_)" stroke-miterlimit="10" cx="380.2" cy="541.7" r="57.5"/>
<linearGradient id="SVGID_9_" gradientUnits="userSpaceOnUse" x1="257.6871" y1="105.4258" x2="257.6871" y2="0.3" gradientTransform="matrix(1 0 0 -1 0 600)">
	<stop  offset="0" style="stop-color:#F2F2F2"/>
	<stop  offset="0.31" style="stop-color:#E6E6E6"/>
	<stop  offset="0.77" style="stop-color:#CCCCCC"/>
</linearGradient>
<path fill="none" stroke="url(#SVGID_9_)" stroke-miterlimit="10" d="M315.2,552.6c0,18.5-8.8,35.8-23.8,46.6H224
	c-25.8-18.6-31.5-54.6-12.9-80.3c18.6-25.8,54.6-31.5,80.3-12.9C306.3,516.8,315.2,534.1,315.2,552.6L315.2,552.6z"/>
<linearGradient id="SVGID_10_" gradientUnits="userSpaceOnUse" x1="184.6603" y1="75.5" x2="184.6603" y2="0.3" gradientTransform="matrix(1 0 0 -1 0 600)">
	<stop  offset="0" style="stop-color:#F2F2F2"/>
	<stop  offset="0.31" style="stop-color:#E6E6E6"/>
	<stop  offset="0.77" style="stop-color:#CCCCCC"/>
</linearGradient>
<path fill="none" stroke="url(#SVGID_10_)" stroke-miterlimit="10" d="M242.2,582.5c0,5.7-0.8,11.3-2.5,16.7H129.6
	c-9.2-30.4,8-62.5,38.4-71.7c5.3-1.6,10.8-2.4,16.3-2.5h0.4c1.6,0,3.2,0.1,4.8,0.2c5.4,0.4,10.8,1.7,15.9,3.6
	C227.5,537.4,242.2,558.8,242.2,582.5z"/>
<linearGradient id="SVGID_11_" gradientUnits="userSpaceOnUse" x1="329" y1="64.0001" x2="329" y2="0.3" gradientTransform="matrix(1 0 0 -1 0 600)">
	<stop  offset="0" style="stop-color:#F2F2F2"/>
	<stop  offset="0.31" style="stop-color:#E6E6E6"/>
	<stop  offset="0.77" style="stop-color:#CCCCCC"/>
</linearGradient>
<path fill="none" stroke="url(#SVGID_11_)" stroke-miterlimit="10" d="M386.5,594c0,1.7-0.1,3.4-0.2,5.1c0,0,0,0,0,0.1H271.7
	c-0.2-1.7-0.2-3.4-0.2-5.2c0-28.4,20.8-52.6,48.9-56.9c2.8-0.4,5.7-0.6,8.6-0.6c1.5,0,2.9,0.1,4.4,0.2c21,1.6,39.4,14.6,48.1,33.8
	c0.2,0.5,0.5,1.1,0.7,1.6C385,579,386.5,586.5,386.5,594z"/>
<linearGradient id="SVGID_12_" gradientUnits="userSpaceOnUse" x1="437.7074" y1="75.5" x2="437.7074" y2="0.3" gradientTransform="matrix(1 0 0 -1 0 600)">
	<stop  offset="0" style="stop-color:#F2F2F2"/>
	<stop  offset="0.31" style="stop-color:#E6E6E6"/>
	<stop  offset="0.77" style="stop-color:#CCCCCC"/>
</linearGradient>
<path fill="none" stroke="url(#SVGID_12_)" stroke-miterlimit="10" d="M495.2,582.5c0,5.7-0.8,11.3-2.5,16.7h-110l0,0
	c-2.7-8.8-3.2-18.2-1.5-27.3c0.1-0.5,0.2-1,0.3-1.5c5.7-26.5,29.1-45.4,56.2-45.4c1.8,0,3.6,0.1,5.3,0.3c0.8,0.1,1.6,0.2,2.4,0.3
	C474,529.4,495.2,553.8,495.2,582.5z"/>
<linearGradient id="SVGID_13_" gradientUnits="userSpaceOnUse" x1="86.8558" y1="75.5376" x2="86.8558" y2="-2.4362" gradientTransform="matrix(1 0 0 -1 0 600)">
	<stop  offset="0" style="stop-color:#F2F2F2"/>
	<stop  offset="0.31" style="stop-color:#E6E6E6"/>
	<stop  offset="0.77" style="stop-color:#CCCCCC"/>
</linearGradient>
<path fill="none" stroke="url(#SVGID_13_)" stroke-miterlimit="10" d="M141.9,599.2c0.2-0.6,0.4-1.2,0.5-1.8
	c8.2-30.7-10-62.3-40.7-70.5c-9.9-2.6-20.3-2.6-30.2,0.1c-2.3,0.6-4.5,1.4-6.7,2.3c-27.3,11.4-41.5,41.5-33,69.8L141.9,599.2
	L141.9,599.2z"/>
<g opacity="0.7">
	<linearGradient id="SVGID_14_" gradientUnits="userSpaceOnUse" x1="473.4" y1="480.9334" x2="473.4" y2="459.832">
		<stop  offset="0" style="stop-color:#808080;stop-opacity:0.25"/>
		<stop  offset="0.54" style="stop-color:#808080;stop-opacity:0.12"/>
		<stop  offset="1" style="stop-color:#808080;stop-opacity:0.1"/>
	</linearGradient>
	<circle fill="url(#SVGID_14_)" cx="473.4" cy="470.4" r="10.6"/>
</g>
<linearGradient id="SVGID_15_" gradientUnits="userSpaceOnUse" x1="473.4" y1="139.9" x2="473.4" y2="119.3464" gradientTransform="matrix(1 0 0 -1 0 600)">
	<stop  offset="0" style="stop-color:#F2F2F2"/>
	<stop  offset="0.31" style="stop-color:#E6E6E6"/>
	<stop  offset="0.77" style="stop-color:#CCCCCC"/>
</linearGradient>
<circle fill="none" stroke="url(#SVGID_15_)" stroke-miterlimit="10" cx="473.4" cy="470.4" r="9.8"/>
<g opacity="0.7">
	<linearGradient id="SVGID_16_" gradientUnits="userSpaceOnUse" x1="521.7" y1="583.7" x2="521.7" y2="560.7">
		<stop  offset="0" style="stop-color:#808080;stop-opacity:0.25"/>
		<stop  offset="0.54" style="stop-color:#808080;stop-opacity:0.12"/>
		<stop  offset="1" style="stop-color:#808080;stop-opacity:0.1"/>
	</linearGradient>
	<circle fill="url(#SVGID_16_)" cx="521.7" cy="572.2" r="11.5"/>
</g>
<linearGradient id="SVGID_17_" gradientUnits="userSpaceOnUse" x1="521.7" y1="39.2439" x2="521.7" y2="16.3843" gradientTransform="matrix(1 0 0 -1 0 600)">
	<stop  offset="0" style="stop-color:#F2F2F2"/>
	<stop  offset="0.31" style="stop-color:#E0E0E0"/>
	<stop  offset="0.77" style="stop-color:#B3B3B3"/>
</linearGradient>
<circle fill="none" stroke="url(#SVGID_17_)" stroke-miterlimit="10" cx="521.7" cy="572.2" r="10.9"/>
<g opacity="0.7">
	<linearGradient id="SVGID_18_" gradientUnits="userSpaceOnUse" x1="29.4" y1="519.2587" x2="29.4" y2="493.9717">
		<stop  offset="0" style="stop-color:#808080;stop-opacity:0.25"/>
		<stop  offset="0.54" style="stop-color:#808080;stop-opacity:0.12"/>
		<stop  offset="1" style="stop-color:#808080;stop-opacity:0.1"/>
	</linearGradient>
	<circle fill="url(#SVGID_18_)" cx="29.4" cy="506.6" r="12.6"/>
</g>
<linearGradient id="SVGID_19_" gradientUnits="userSpaceOnUse" x1="29.4" y1="105.9597" x2="29.4" y2="80.8099" gradientTransform="matrix(1 0 0 -1 0 600)">
	<stop  offset="0" style="stop-color:#F2F2F2"/>
	<stop  offset="0.31" style="stop-color:#E6E6E6"/>
	<stop  offset="0.77" style="stop-color:#CCCCCC"/>
</linearGradient>
<circle fill="none" stroke="url(#SVGID_19_)" stroke-miterlimit="10" cx="29.4" cy="506.6" r="12.1"/>
<g opacity="0.4">
	
		<linearGradient id="SVGID_20_" gradientUnits="userSpaceOnUse" x1="620.4256" y1="152.325" x2="620.4256" y2="82.9311" gradientTransform="matrix(1 0 0 1 -137.41 -64.95)">
		<stop  offset="0" style="stop-color:#808080;stop-opacity:0.25"/>
		<stop  offset="0.54" style="stop-color:#808080;stop-opacity:0.12"/>
		<stop  offset="1" style="stop-color:#808080;stop-opacity:0.1"/>
	</linearGradient>
	<path fill="url(#SVGID_20_)" d="M510.7,31.8L510.7,31.8c-2.8-3.7-6.3-6.8-10.3-9.1l0,0c-16.6-9.5-37.8-3.8-47.4,12.8
		s-3.8,37.8,12.8,47.4c5.2,3,11.2,4.6,17.2,4.6c0.7,0,1.5,0,2.2-0.1c19.1-1.2,33.6-17.7,32.4-36.8C517.2,43.7,514.8,37.2,510.7,31.8
		L510.7,31.8z"/>
</g>
<path opacity="0.2" fill="#FF7E47" enable-background="new    " d="M515.8,52.7c0,17.3-13.4,31.6-30.7,32.7c-0.7,0-1.4,0.1-2.1,0.1
	c-18.1,0-32.8-14.7-32.8-32.8s14.7-32.8,32.8-32.8c5.7,0,11.4,1.5,16.4,4.4l0,0c3.8,2.2,7.1,5.1,9.8,8.6l0,0
	C513.5,38.6,515.8,45.5,515.8,52.7z"/>
<path opacity="5.000000e-02" fill="#F55F44" enable-background="new    " d="M474.9,31.9c-1.7,0.7-3.3,1.6-4.9,2.6
	c-1,0.6-1.9,1.4-2.6,2.4s-0.7,2.3-0.1,3.3c0.8,1.1,2.4,1.3,3.7,1.3c2.5,0.5,5-0.3,6.7-2.2l2.8-2.6c1-0.9,2.1-2.1,1.6-3.4
	c-0.3-1-1.4-1.4-2.4-1.6c-2.4-0.5-4.9,0-7.1,1.2"/>
<circle opacity="5.000000e-02" fill="#F55F44" enable-background="new    " cx="463.1" cy="65.6" r="1.7"/>
<circle opacity="5.000000e-02" fill="#F55F44" enable-background="new    " cx="498.2" cy="54.7" r="6.3"/>
<path opacity="5.000000e-02" fill="#F55F44" enable-background="new    " d="M509.2,32.9L509.2,32.9c-0.1,4.8-4,8.6-8.8,8.5
	s-8.6-4-8.5-8.8c0.1-4.3,3.3-7.9,7.5-8.4l0,0C503.2,26.4,506.5,29.4,509.2,32.9z"/>
<path opacity="5.000000e-02" fill="#F55F44" enable-background="new    " d="M509.8,71.5c-5.7,8.1-14.8,13.2-24.7,13.8
	c0-0.5-0.1-0.9-0.1-1.4c0-8.6,7-15.5,15.5-15.5C503.9,68.5,507.1,69.5,509.8,71.5L509.8,71.5z"/>
<circle opacity="0.25" fill="#535461" enable-background="new    " cx="483.2" cy="266.2" r="4"/>
<circle opacity="0.25" fill="#535461" enable-background="new    " cx="140.4" cy="204.1" r="4"/>
<circle opacity="0.25" fill="#535461" enable-background="new    " cx="127.1" cy="111.5" r="4"/>
<circle opacity="0.25" fill="#535461" enable-background="new    " cx="13.2" cy="295" r="4"/>
<polygon opacity="0.25" fill="#535461" enable-background="new    " points="387.4,106.4 383.8,106.4 383.8,102.8 382.4,102.8 
	382.4,106.4 378.8,106.4 378.8,107.9 382.4,107.9 382.4,111.5 383.8,111.5 383.8,107.9 387.4,107.9 "/>
<polygon opacity="0.25" fill="#535461" enable-background="new    " points="543.8,279.6 540.3,279.6 540.3,276 538.8,276 
	538.8,279.6 535.2,279.6 535.2,281 538.8,281 538.8,284.6 540.3,284.6 540.3,281 543.8,281 "/>
<polygon opacity="0.25" fill="#535461" enable-background="new    " points="412.7,398.6 409.1,398.6 409.1,395 407.7,395 
	407.7,398.6 404.1,398.6 404.1,400.1 407.7,400.1 407.7,403.7 409.1,403.7 409.1,400.1 412.7,400.1 "/>
<polygon opacity="0.25" fill="#535461" enable-background="new    " points="45.7,153 42.2,153 42.2,149.4 40.7,149.4 40.7,153 
	37.1,153 37.1,154.5 40.7,154.5 40.7,158.1 42.2,158.1 42.2,154.5 45.7,154.5 "/>
<polygon opacity="0.25" fill="#535461" enable-background="new    " points="95.2,346.3 91.6,346.3 91.6,342.7 90.2,342.7 
	90.2,346.3 86.6,346.3 86.6,347.7 90.2,347.7 90.2,351.3 91.6,351.3 91.6,347.7 95.2,347.7 "/>
<g opacity="0.4">
	
		<linearGradient id="SVGID_21_" gradientUnits="userSpaceOnUse" x1="248.9059" y1="360.4327" x2="248.9059" y2="327.3797" gradientTransform="matrix(1 0 0 1 -137.41 -64.95)">
		<stop  offset="0" style="stop-color:#808080;stop-opacity:0.25"/>
		<stop  offset="0.54" style="stop-color:#808080;stop-opacity:0.12"/>
		<stop  offset="1" style="stop-color:#808080;stop-opacity:0.1"/>
	</linearGradient>
	<path fill="url(#SVGID_21_)" d="M124.7,269L124.7,269c-1.3-1.8-3-3.2-4.9-4.4l0,0c-7.9-4.6-18-1.9-22.6,6s-1.9,18,6,22.6
		c2.5,1.5,5.4,2.3,8.4,2.2c0.3,0,0.7,0,1,0c9.1-0.6,16-8.4,15.4-17.5C127.8,274.7,126.7,271.6,124.7,269L124.7,269z"/>
</g>
<path opacity="0.2" fill="#FF7E47" enable-background="new    " d="M127.2,279c0,8.2-6.4,15.1-14.6,15.6c-0.3,0-0.7,0-1,0
	c-8.6,0-15.6-7-15.6-15.6s7-15.6,15.6-15.6c2.7,0,5.4,0.7,7.8,2.1l0,0c1.8,1.1,3.4,2.4,4.7,4.1l0,0
	C126.1,272.3,127.2,275.6,127.2,279z"/>
<path opacity="0.1" fill="#F55F44" enable-background="new    " d="M107.7,269.1c-0.8,0.3-1.6,0.8-2.4,1.2c-0.5,0.3-0.9,0.7-1.2,1.1
	c-0.3,0.5-0.3,1.1,0,1.6c0.5,0.5,1.1,0.7,1.8,0.6c1.2,0.2,2.4-0.2,3.2-1.1l1.3-1.2c0.5-0.4,1-1,0.8-1.6c-0.2-0.4-0.6-0.7-1.1-0.8
	c-1.2-0.2-2.3,0-3.4,0.6"/>
<circle opacity="0.1" fill="#F55F44" enable-background="new    " cx="102.1" cy="285.2" r="0.8"/>
<circle opacity="0.1" fill="#F55F44" enable-background="new    " cx="118.8" cy="279.9" r="3"/>
<path opacity="0.1" fill="#F55F44" enable-background="new    " d="M124,269.6L124,269.6c0,2.3-1.9,4.1-4.2,4.1
	c-2.3,0-4.1-1.9-4.1-4.2c0-2,1.5-3.7,3.6-4l0,0C121.2,266.5,122.8,268,124,269.6z"/>
<path opacity="0.1" fill="#F55F44" enable-background="new    " d="M124.3,288c-2.7,3.9-7.1,6.3-11.8,6.6c0-0.2,0-0.4,0-0.7
	c0-4.1,3.3-7.4,7.4-7.4C121.5,286.5,123.1,287,124.3,288L124.3,288z"/>
<g opacity="0.1">
	<rect x="220.8" y="153.5" width="81.3" height="3.2"/>
</g>
</svg>
