<?xml version="1.0" encoding="utf-8"?>
<!-- Generator: Adobe Illustrator 21.1.0, SVG Export Plug-In . SVG Version: 6.00 Build 0)  -->
<svg version="1.0" id="Capa_1" xmlns="http://www.w3.org/2000/svg" xmlns:xlink="http://www.w3.org/1999/xlink" x="0px" y="0px"
	 viewBox="0 0 554 600" enable-background="new 0 0 554 600" xml:space="preserve">
<g>
	<g opacity="0.8">
		
			<linearGradient id="SVGID_1_" gradientUnits="userSpaceOnUse" x1="306.8727" y1="323.7627" x2="306.8727" y2="472.6344" gradientTransform="matrix(1 0 0 -1 0 608)">
			<stop  offset="0" style="stop-color:#808080;stop-opacity:0.25"/>
			<stop  offset="0.54" style="stop-color:#808080;stop-opacity:0.12"/>
			<stop  offset="1" style="stop-color:#808080;stop-opacity:0.1"/>
		</linearGradient>
		<ellipse fill="url(#SVGID_1_)" cx="306.9" cy="209.8" rx="96.1" ry="74.4"/>
	</g>
	<ellipse fill="#FCB72D" cx="306.9" cy="209.8" rx="94" ry="72.8"/>
	<path opacity="0.1" fill="#FFFFFF" enable-background="new    " d="M228.1,217.9c0-40.2,42.1-72.8,94-72.8
		c16.1-0.1,32.1,3.2,46.8,9.7c-16.5-11.2-38.1-17.9-61.8-17.9c-51.9,0-94,32.6-94,72.8c0,27,19,50.6,47.1,63.1
		C240.6,259.4,228.1,239.8,228.1,217.9z"/>
	<polygon opacity="0.61" fill="#FFE4AE" enable-background="new    " points="306.9,239.1 411,419.5 515.2,599.9 306.9,599.9 
		98.6,599.9 202.7,419.5 	"/>
	<g opacity="0.3">
		
			<linearGradient id="SVGID_2_" gradientUnits="userSpaceOnUse" x1="186.4648" y1="-456.834" x2="186.4648" y2="-335.1606" gradientTransform="matrix(0.9478 0.319 0.319 -0.9478 249.3229 43.2173)">
			<stop  offset="0" style="stop-color:#808080;stop-opacity:0.25"/>
			<stop  offset="0.54" style="stop-color:#808080;stop-opacity:0.12"/>
			<stop  offset="1" style="stop-color:#808080;stop-opacity:0.1"/>
		</linearGradient>
		<path fill="url(#SVGID_2_)" d="M331.6,494.5l8.1-24c5.7-17.2-0.5-36-15.2-46.5l0.1,0c-3.2-2.2-6.7-4-10.4-5.2l0,0l-0.1,0l-0.1,0
			l0,0c-3.6-1.2-7.3-1.9-11.1-2.1c-1.3-0.1-2.7-0.1-4,0c-2.3,0.1-4.6,0.4-6.9,1c-0.6,0.1-1.3,0.3-1.9,0.5c-0.6,0.2-1.3,0.4-1.9,0.6
			c-1.2,0.4-2.5,0.9-3.7,1.4c-0.6,0.3-1.2,0.5-1.8,0.8c-1.8,0.9-3.5,1.9-5.1,3c-0.5,0.4-1.1,0.8-1.6,1.2
			c-6.5,4.9-11.3,11.7-13.9,19.4l-12.7,37.8c-2,5.9-2.6,12.2-1.8,18.4c0.1,1,0.3,1.9,0.5,2.8s0.4,1.9,0.7,2.8
			c0.2,0.6,0.4,1.2,0.6,1.8c0.3,0.9,0.6,1.8,1,2.7c0.2,0.6,0.5,1.2,0.8,1.7c0.5,1.2,1.1,2.3,1.8,3.4c0.6,1.1,1.3,2.2,2.1,3.2
			c0.6,0.8,1.1,1.5,1.7,2.3c0.8,1,1.7,1.9,2.6,2.8c3.9,3.9,8.6,7,13.8,9.1l0,0l0,0l0.2,0.1c0.3-0.5,0.6-1,0.9-1.4
			c2-2.7,5.4-4.6,8.7-3.9c0.2,0.1,0.5,0.1,0.7,0.2c1.7,0.6,3.3,1.6,4.9,2.1c1.2,0.5,2.5,0.5,3.7,0c3.2-1.7,2-7.1,4.7-9.4
			c0.1-0.1,0.3-0.2,0.4-0.3l-0.1-0.2c2.1-1.3,5-0.4,7.5,0.4c2.6,0.9,6,1.5,7.9-0.6c1.2-1.5,1.1-3.7,2.3-5.2c1.4-1.8,3.9-2,6.2-1.7
			c1.2,0.2,8.4,8.5,14,5.8C325.9,511.4,330.9,496.6,331.6,494.5z"/>
	</g>
	<path fill="#FFFFFF" d="M274.9,529.9c1.9-2.6,5.2-4.5,8.4-3.7s6.1,3.7,8.9,2.2c3.1-1.6,1.9-6.8,4.6-9.1c2.1-1.8,5.2-0.9,7.7,0
		c2.6,0.9,5.8,1.5,7.6-0.6c1.2-1.4,1.1-3.6,2.2-5c1.3-1.7,3.8-1.9,5.9-1.6c1.1,0.2,8.1,8.2,13.5,5.6c-8.8-7.5-3.9-21.7-3.3-23.8
		l7.8-23.2c6.9-20.7-4.2-43-24.8-50l0,0c-20.7-6.9-43,4.2-50,24.8L251.1,482c-6.6,19.9,3.4,41.5,22.9,49.3
		C274.2,530.8,274.5,530.3,274.9,529.9z"/>
	
		<ellipse transform="matrix(0.319 -0.9478 0.9478 0.319 -221.7519 575.2599)" opacity="0.2" enable-background="new    " cx="289.4" cy="441.9" rx="4.3" ry="4.3"/>
	
		<ellipse transform="matrix(0.319 -0.9478 0.9478 0.319 -212.9543 603.849)" opacity="0.2" enable-background="new    " cx="313.7" cy="450.1" rx="4.3" ry="4.3"/>
	
		<ellipse transform="matrix(0.319 -0.9478 0.9478 0.319 -236.4111 595.4191)" fill="#E0E0E0" cx="296.1" cy="462.2" rx="6.4" ry="4.3"/>
	
		<ellipse transform="matrix(0.319 -0.9478 0.9478 0.319 -156.8874 667.4266)" fill="#FFFFFF" cx="386" cy="442.9" rx="6.4" ry="6.4"/>
	
		<ellipse transform="matrix(0.319 -0.9478 0.9478 0.319 -133.5193 679.7915)" fill="#FFFFFF" cx="406.3" cy="432.8" rx="3.2" ry="3.2"/>
	<g opacity="0.8">
		
			<linearGradient id="SVGID_3_" gradientUnits="userSpaceOnUse" x1="306.8727" y1="308.8113" x2="306.8727" y2="321.624" gradientTransform="matrix(1 0 0 -1 0 608)">
			<stop  offset="0" style="stop-color:#808080;stop-opacity:0.25"/>
			<stop  offset="0.54" style="stop-color:#808080;stop-opacity:0.12"/>
			<stop  offset="1" style="stop-color:#808080;stop-opacity:0.1"/>
		</linearGradient>
		<rect x="242.8" y="286.4" fill="url(#SVGID_3_)" width="128.1" height="12.8"/>
	</g>
	<rect x="242.8" y="284.2" fill="#E0E0E0" width="128.1" height="12.8"/>
	<path opacity="0.1" enable-background="new    " d="M397.1,188.2c1.2,4.7,1.8,9.5,1.8,14.4c0,40.2-42.1,72.8-94,72.8
		c-42.5,0-78.3-21.8-90-51.7c8.6,33.3,46.6,58.4,92.1,58.4c51.9,0,94-32.6,94-72.8C401.1,202.1,399.7,194.9,397.1,188.2z"/>
	<g opacity="0.8">
		
			<linearGradient id="SVGID_4_" gradientUnits="userSpaceOnUse" x1="306.8727" y1="315.6801" x2="306.8727" y2="417.2504" gradientTransform="matrix(1 0 0 -1 0 608)">
			<stop  offset="0" style="stop-color:#808080;stop-opacity:0.25"/>
			<stop  offset="0.54" style="stop-color:#808080;stop-opacity:0.12"/>
			<stop  offset="1" style="stop-color:#808080;stop-opacity:0.1"/>
		</linearGradient>
		<ellipse fill="url(#SVGID_4_)" cx="306.9" cy="241.5" rx="194.3" ry="50.8"/>
	</g>
	<path fill="#FFFFFF" d="M306.9,192.4c-103.8,0-187.9,22-187.9,49.1h375.8C494.8,214.4,410.6,192.4,306.9,192.4z"/>
	<path fill="#FFFFFF" d="M306.9,290.6c103.8,0,187.9-22,187.9-49.1H119C119,268.7,203.1,290.6,306.9,290.6z"/>
	<path opacity="5.000000e-02" enable-background="new    " d="M306.9,290.6c103.8,0,187.9-22,187.9-49.1H119
		C119,268.7,203.1,290.6,306.9,290.6z"/>
	<path opacity="5.000000e-02" enable-background="new    " d="M228.5,228.7h156.8c6.2,0,11.3,5.1,11.3,11.3v3
		c0,6.2-5.1,11.3-11.3,11.3H228.5c-6.2,0-11.3-5.1-11.3-11.3v-3C217.2,233.8,222.2,228.7,228.5,228.7z"/>
	<g>
		<path opacity="0.5" fill="#99A3B2" enable-background="new    " d="M111.3,160.9c-1.1-0.5-1.7-1.7-1.3-2.9c0-0.1,0-0.2,0.1-0.3
			l0,0c0-0.7-0.5-1.2-1.1-1.3c-0.4,0-0.8,0.2-1,0.5l0,0c-0.1,0.1-0.1,0.2-0.1,0.2c-0.5,1.1-1.7,1.7-2.9,1.3c-0.1,0-0.2,0-0.3-0.1
			l0,0c-0.7,0-1.2,0.5-1.3,1.1c0,0.4,0.2,0.8,0.5,1l0,0c0.1,0.1,0.2,0.1,0.2,0.1c1.1,0.5,1.7,1.7,1.3,2.9c0,0.1,0,0.2-0.1,0.3l0,0
			c0,0.7,0.5,1.2,1.1,1.3c0.4,0,0.8-0.2,1-0.5l0,0c0.1-0.1,0.1-0.2,0.1-0.2c0.5-1.1,1.7-1.7,2.9-1.3c0.1,0,0.2,0,0.3,0.1l0,0
			c0.7,0,1.2-0.5,1.3-1.1c0-0.4-0.2-0.8-0.5-1l0,0C111.5,161,111.4,161,111.3,160.9z"/>
		<path opacity="0.5" fill="#99A3B2" enable-background="new    " d="M445.2,361.7c-1.1-0.5-1.7-1.7-1.3-2.9c0-0.1,0-0.2,0.1-0.3
			l0,0c0-0.7-0.5-1.2-1.1-1.3c-0.4,0-0.8,0.2-1,0.5l0,0c-0.1,0.1-0.1,0.2-0.1,0.2c-0.5,1.1-1.7,1.7-2.9,1.3c-0.1,0-0.2,0-0.3-0.1
			l0,0c-0.7,0-1.2,0.5-1.3,1.1c0,0.4,0.2,0.8,0.5,1l0,0c0.1,0.1,0.2,0.1,0.2,0.1c1.1,0.5,1.7,1.7,1.3,2.9c0,0.1,0,0.2-0.1,0.3l0,0
			c0,0.7,0.5,1.2,1.1,1.3c0.4,0,0.8-0.2,1-0.5l0,0c0.1-0.1,0.1-0.2,0.1-0.2c0.5-1.1,1.7-1.7,2.9-1.3c0.1,0,0.2,0,0.3,0.1l0,0
			c0.7,0,1.2-0.5,1.3-1.1c0-0.4-0.2-0.8-0.5-1l0,0C445.4,361.8,445.3,361.7,445.2,361.7z"/>
		<path opacity="0.5" fill="#99A3B2" enable-background="new    " d="M76.5,501.8c-1.1-0.5-1.7-1.7-1.3-2.9c0-0.1,0-0.2,0.1-0.3l0,0
			c0-0.7-0.5-1.2-1.1-1.3c-0.4,0-0.8,0.2-1,0.5l0,0c-0.1,0.1-0.1,0.2-0.1,0.2c-0.5,1.1-1.7,1.7-2.9,1.3c-0.1,0-0.2,0-0.3-0.1l0,0
			c-0.7,0-1.2,0.5-1.3,1.1c0,0.4,0.2,0.8,0.5,1l0,0c0.1,0.1,0.2,0.1,0.2,0.1c1.1,0.5,1.7,1.7,1.3,2.9c0,0.1,0,0.2-0.1,0.3l0,0
			c0,0.7,0.5,1.2,1.1,1.3c0.4,0,0.8-0.2,1-0.5l0,0c0.1-0.1,0.1-0.2,0.1-0.2c0.5-1.1,1.7-1.7,2.9-1.3c0.1,0,0.2,0,0.3,0.1l0,0
			c0.7,0,1.2-0.5,1.3-1.1c0-0.4-0.2-0.8-0.5-1l0,0C76.7,501.9,76.6,501.9,76.5,501.8z"/>
		<path opacity="0.5" fill="#99A3B2" enable-background="new    " d="M40.4,237.7c-1.1-0.5-1.7-1.7-1.3-2.9c0-0.1,0-0.2,0.1-0.3l0,0
			c0-0.7-0.5-1.2-1.1-1.3c-0.4,0-0.8,0.2-1,0.5l0,0c-0.1,0.1-0.1,0.2-0.1,0.2c-0.5,1.1-1.7,1.7-2.9,1.3c-0.1,0-0.2,0-0.3-0.1l0,0
			c-0.7,0-1.2,0.5-1.3,1.1c0,0.4,0.2,0.8,0.5,1l0,0c0.1,0.1,0.2,0.1,0.2,0.1c1.1,0.5,1.7,1.7,1.3,2.9c0,0.1,0,0.2-0.1,0.3l0,0
			c0,0.7,0.5,1.2,1.1,1.3c0.4,0,0.8-0.2,1-0.5l0,0c0.1-0.1,0.1-0.2,0.1-0.2c0.5-1.1,1.7-1.7,2.9-1.3c0.1,0,0.2,0,0.3,0.1l0,0
			c0.7,0,1.2-0.5,1.3-1.1c0-0.4-0.2-0.8-0.5-1l0,0C40.6,237.8,40.5,237.7,40.4,237.7z"/>
		<path opacity="0.5" fill="#99A3B2" enable-background="new    " d="M438.7,127.5c-1.1-0.5-1.7-1.7-1.3-2.9c0-0.1,0-0.2,0.1-0.3
			l0,0c0-0.7-0.5-1.2-1.1-1.3c-0.4,0-0.8,0.2-1,0.5l0,0c-0.1,0.1-0.1,0.2-0.1,0.2c-0.5,1.1-1.7,1.7-2.9,1.3c-0.1,0-0.2,0-0.3-0.1
			l0,0c-0.7-0.1-1.3,0.3-1.4,0.9c-0.1,0.5,0.1,1,0.6,1.3l0,0c0.1,0.1,0.2,0.1,0.2,0.1c1.1,0.5,1.7,1.7,1.3,2.9c0,0.1,0,0.2-0.1,0.3
			l0,0c-0.1,0.7,0.4,1.3,1.1,1.3c0.5,0,0.9-0.2,1.1-0.5l0,0c0.1-0.1,0.1-0.2,0.1-0.2c0.5-1.1,1.7-1.7,2.9-1.3c0.1,0,0.2,0,0.3,0.1
			l0,0c0.7,0,1.2-0.5,1.3-1.1c0-0.4-0.2-0.8-0.5-1l0,0C438.8,127.6,438.8,127.5,438.7,127.5z"/>
		<g opacity="0.5">
			<rect x="95.6" y="292.2" fill="#8EA89F" width="2" height="11.2"/>
			<rect x="91" y="296.8" fill="#8EA89F" width="11.2" height="2"/>
		</g>
		<g opacity="0.5">
			<rect x="148.6" y="13.2" fill="#8EA89F" width="2" height="11.2"/>
			<rect x="144" y="17.8" fill="#8EA89F" width="11.2" height="2"/>
		</g>
		<g opacity="0.5">
			<rect x="52" y="399.7" fill="#8EA89F" width="2" height="11.2"/>
			<rect x="47.4" y="404.3" fill="#8EA89F" width="11.2" height="2"/>
		</g>
		<g opacity="0.5">
			<rect x="502.4" y="422.7" fill="#8EA89F" width="2" height="11.2"/>
			<rect x="497.8" y="427.3" fill="#8EA89F" width="11.2" height="2"/>
		</g>
		<circle opacity="0.5" fill="#A2B4B7" enable-background="new    " cx="501.8" cy="83.7" r="3.9"/>
		<circle opacity="0.5" fill="#A2B4B7" enable-background="new    " cx="27.4" cy="131.4" r="3.9"/>
		<circle opacity="0.5" fill="#A2B4B7" enable-background="new    " cx="145.5" cy="357.8" r="3.9"/>
		<path opacity="0.5" fill="#99A3B2" enable-background="new    " d="M273.3,71.9c-1.1-0.5-1.7-1.7-1.3-2.9c0-0.1,0-0.2,0.1-0.3l0,0
			c0-0.7-0.5-1.2-1.1-1.3c-0.4,0-0.8,0.2-1,0.5l0,0c-0.1,0.1-0.1,0.2-0.1,0.2c-0.5,1.1-1.7,1.7-2.9,1.3c-0.1,0-0.2,0-0.3-0.1l0,0
			c-0.7,0-1.2,0.5-1.3,1.1c0,0.4,0.2,0.8,0.5,1l0,0c0.1,0.1,0.2,0.1,0.2,0.1c1.1,0.5,1.7,1.7,1.3,2.9c0,0.1,0,0.2-0.1,0.3l0,0
			c0,0.7,0.5,1.2,1.1,1.3c0.4,0,0.8-0.2,1-0.5l0,0c0.1-0.1,0.1-0.2,0.1-0.2c0.5-1.1,1.7-1.7,2.9-1.3c0.1,0,0.2,0,0.3,0.1l0,0
			c0.7,0,1.2-0.5,1.3-1.1c0-0.4-0.2-0.8-0.5-1l0,0C273.5,72,273.4,72,273.3,71.9z"/>
		<path opacity="0.5" fill="#99A3B2" enable-background="new    " d="M486.2,195.7c-1.1-0.5-1.7-1.7-1.3-2.9c0-0.1,0-0.2,0.1-0.3
			l0,0c0-0.7-0.5-1.2-1.1-1.3c-0.4,0-0.8,0.2-1,0.5l0,0c-0.1,0.1-0.1,0.2-0.1,0.2c-0.5,1.1-1.7,1.7-2.9,1.3c-0.1,0-0.2,0-0.3-0.1
			l0,0c-0.7,0-1.2,0.5-1.3,1.1c0,0.4,0.2,0.8,0.5,1l0,0c0.1,0.1,0.2,0.1,0.2,0.1c1.1,0.5,1.7,1.7,1.3,2.9c0,0.1,0,0.2-0.1,0.3l0,0
			c0,0.7,0.5,1.2,1.1,1.3c0.4,0,0.8-0.2,1-0.5l0,0c0.1-0.1,0.1-0.2,0.1-0.2c0.5-1.1,1.7-1.7,2.9-1.3c0.1,0,0.2,0,0.3,0.1l0,0
			c0.7,0,1.2-0.5,1.3-1.1c0-0.4-0.2-0.8-0.5-1l0,0C486.4,195.8,486.3,195.7,486.2,195.7z"/>
		<path opacity="0.5" fill="#99A3B2" enable-background="new    " d="M81.4,71.7c-1.1-0.5-1.7-1.7-1.3-2.9c0-0.1,0-0.2,0.1-0.3l0,0
			c0-0.7-0.5-1.2-1.1-1.3c-0.4,0-0.8,0.2-1,0.5l0,0c-0.1,0.1-0.1,0.2-0.1,0.2c-0.5,1.1-1.7,1.7-2.9,1.3c-0.1,0-0.2,0-0.3-0.1l0,0
			c-0.7,0-1.2,0.5-1.3,1.1c0,0.4,0.2,0.8,0.5,1l0,0c0.1,0.1,0.2,0.1,0.2,0.1c1.1,0.5,1.7,1.7,1.3,2.9c0,0.1,0,0.2-0.1,0.3l0,0
			c0,0.7,0.5,1.2,1.1,1.3c0.4,0,0.8-0.2,1-0.5l0,0c0.1-0.1,0.1-0.2,0.1-0.2c0.5-1.1,1.7-1.7,2.9-1.3c0.1,0,0.2,0,0.3,0.1l0,0
			c0.7,0,1.2-0.5,1.3-1.1c0-0.4-0.2-0.8-0.5-1l0,0C81.6,71.8,81.5,71.7,81.4,71.7z"/>
		<circle opacity="0.5" fill="#A2B4B7" enable-background="new    " cx="356.8" cy="51.7" r="3.9"/>
		<circle opacity="0.5" fill="#A2B4B7" enable-background="new    " cx="173.8" cy="91.7" r="3.9"/>
	</g>
</g>
</svg>
